<svg xmlns="http://www.w3.org/2000/svg" viewBox="0 0 766 768"><defs><style>.a{fill:none;stroke:#004775;stroke-miterlimit:10;stroke-width:7px;}.b{fill:lime;}</style></defs><title>sequence</title><path d="M377.12,89.56h6.28V65.47L376.54,67V63.1l6.82-1.53h3.85v28h6.28v3.6H377.12Z"/><path d="M376.48,679h15.11v3.59H380v7.75a10.87,10.87,0,0,1,1.69-.48,9.47,9.47,0,0,1,1.68-.16,10,10,0,0,1,7.54,2.9,10.88,10.88,0,0,1,2.78,7.85q0,5.1-2.85,7.93t-8.06,2.82a19.45,19.45,0,0,1-3.65-.34,26.75,26.75,0,0,1-3.84-1v-4.3a13.44,13.44,0,0,0,3.54,1.54,14.41,14.41,0,0,0,3.86.51,7.16,7.16,0,1,0,.76-14.3h-.76a12.8,12.8,0,0,0-3.08.38,14.55,14.55,0,0,0-3.12,1.19Z"/><path d="M163.57,167.33a6.79,6.79,0,0,1-3.85-2.56,7.53,7.53,0,0,1-1.38-4.59,7.72,7.72,0,0,1,2.43-6,11.18,11.18,0,0,1,13.31,0,7.71,7.71,0,0,1,2.42,6,7.53,7.53,0,0,1-1.38,4.59,6.79,6.79,0,0,1-3.83,2.56,7.55,7.55,0,0,1,4.33,2.82,8.37,8.37,0,0,1,1.55,5.12q0,4.59-2.53,7c-1.69,1.61-4.09,2.43-7.22,2.46s-5.54-.82-7.23-2.46-2.53-4-2.52-7a8.31,8.31,0,0,1,1.56-5.12A7.58,7.58,0,0,1,163.57,167.33Zm3.85,1.82a5.79,5.79,0,0,0-4.32,1.63,7.24,7.24,0,0,0,0,9,6.54,6.54,0,0,0,8.65,0,7.19,7.19,0,0,0,0-9,5.79,5.79,0,0,0-4.33-1.63Zm-5.25-8.57a4.78,4.78,0,0,0,4.33,5.21,4.71,4.71,0,0,0,.92,0,5.26,5.26,0,0,0,3.87-1.38,5.93,5.93,0,0,0,0-7.66,6.15,6.15,0,0,0-7.74,0,5.2,5.2,0,0,0-1.38,3.83Z"/><path d="M598.53,180.56h13.41v3.59h-18v-3.59q2.17-2.52,6-6.76c2.53-2.83,4.11-4.65,4.76-5.47a19.85,19.85,0,0,0,2.57-3.91,7.41,7.41,0,0,0,.73-3.14,5.53,5.53,0,0,0-1.58-4.1,5.63,5.63,0,0,0-4.15-1.59,11.52,11.52,0,0,0-3.81.7,21.63,21.63,0,0,0-4.29,2.11v-4.31a28.8,28.8,0,0,1,4.34-1.57,15,15,0,0,1,3.7-.53,9.89,9.89,0,0,1,7,2.46A8.53,8.53,0,0,1,611.8,161a10.33,10.33,0,0,1-.66,3.69,18.16,18.16,0,0,1-2.39,4.11c-.33.41-1.33,1.6-3,3.55Z"/><path d="M175.52,590.36v3.9a14.14,14.14,0,0,0-2.92-1.17,11.49,11.49,0,0,0-2.92-.4,6.65,6.65,0,0,0-5.82,2.86q-2,2.85-2.28,8.63a8,8,0,0,1,2.81-2.82,7.3,7.3,0,0,1,3.73-1,8.47,8.47,0,0,1,6.78,2.89c1.66,1.92,2.48,4.54,2.48,7.86a11.36,11.36,0,0,1-2.59,7.81,8.75,8.75,0,0,1-6.91,2.94,8.36,8.36,0,0,1-7.53-4.2q-2.59-4.2-2.6-12.18,0-7.49,3.2-11.94a10,10,0,0,1,8.59-4.46,13.68,13.68,0,0,1,2.92.32A19.38,19.38,0,0,1,175.52,590.36Zm-7.64,13.4a4.88,4.88,0,0,0-4.09,2,10.39,10.39,0,0,0,0,10.78,5.25,5.25,0,0,0,7.38.83,5,5,0,0,0,.83-.83,10.39,10.39,0,0,0,0-10.78A4.93,4.93,0,0,0,167.88,603.76Z"/><path d="M604.77,589.67h4.85v20.58h4v3.56h-4v7.44h-3.83v-7.44H592.94v-4.13Zm1,3.72-9.71,16.86h9.71Z"/><path d="M69.39,370.3H87.67v1.82L77.34,401.89h-4l9.69-28H69.39Z"/><path d="M697.86,384.86a7.32,7.32,0,0,1,4.31,2.73,8.3,8.3,0,0,1,1.55,5.12,9.1,9.1,0,0,1-2.89,7.23q-2.88,2.56-8.22,2.56a17.59,17.59,0,0,1-3.69-.39,24.21,24.21,0,0,1-3.92-1.17v-4.13a12.58,12.58,0,0,0,3.51,1.57,14.61,14.61,0,0,0,4,.53,8.4,8.4,0,0,0,5.51-1.59,5.67,5.67,0,0,0,1.89-4.61,5.58,5.58,0,0,0-1.76-4.37,7.09,7.09,0,0,0-4.9-1.58h-3.31v-3.51h3.45a6.65,6.65,0,0,0,4.35-1.26,4.44,4.44,0,0,0,1.51-3.63,4.57,4.57,0,0,0-1.55-3.73,6.69,6.69,0,0,0-4.45-1.3,16.08,16.08,0,0,0-3.39.38,29.14,29.14,0,0,0-4,1.18v-3.81a34,34,0,0,1,4.1-1,20.7,20.7,0,0,1,3.6-.34A10.25,10.25,0,0,1,700.5,372a7.49,7.49,0,0,1,2.56,6,7.17,7.17,0,0,1-1.35,4.43A7,7,0,0,1,697.86,384.86Z"/><circle class="a" cx="383" cy="76.27" r="65.27"/><circle class="a" cx="383" cy="693.73" r="65.27"/><circle class="a" cx="601.31" cy="166.69" r="65.27"/><circle class="a" cx="164.69" cy="603.31" r="65.27"/><circle class="a" cx="601.31" cy="603.31" r="65.27"/><circle class="a" cx="164.69" cy="166.69" r="65.27"/><circle class="a" cx="691.73" cy="385" r="65.27"/><circle class="a" cx="74.27" cy="385" r="65.27"/><path class="b" d="M375.12,86.56h6.28V62.47L374.54,64V60.1l6.82-1.53h3.85v28h6.28v3.6H375.12Z"/><path class="b" d="M374.48,676h15.11v3.59H378v7.75a10.87,10.87,0,0,1,1.69-.48,9.47,9.47,0,0,1,1.68-.16,10,10,0,0,1,7.54,2.9,10.88,10.88,0,0,1,2.78,7.85q0,5.1-2.85,7.93t-8.06,2.82a19.45,19.45,0,0,1-3.65-.34,26.75,26.75,0,0,1-3.84-1v-4.3a13.44,13.44,0,0,0,3.54,1.54,14.41,14.41,0,0,0,3.86.51,7.16,7.16,0,1,0,.76-14.3h-.76a12.8,12.8,0,0,0-3.08.38,14.55,14.55,0,0,0-3.12,1.19Z"/><path class="b" d="M161.57,164.33a6.79,6.79,0,0,1-3.85-2.56,7.53,7.53,0,0,1-1.38-4.59,7.72,7.72,0,0,1,2.43-6,11.18,11.18,0,0,1,13.31,0,7.71,7.71,0,0,1,2.42,6,7.53,7.53,0,0,1-1.38,4.59,6.79,6.79,0,0,1-3.83,2.56,7.55,7.55,0,0,1,4.33,2.82,8.37,8.37,0,0,1,1.55,5.12q0,4.59-2.53,7c-1.69,1.61-4.09,2.43-7.22,2.46s-5.54-.82-7.23-2.46-2.53-4-2.52-7a8.31,8.31,0,0,1,1.56-5.12A7.58,7.58,0,0,1,161.57,164.33Zm3.85,1.82a5.79,5.79,0,0,0-4.32,1.63,7.24,7.24,0,0,0,0,9,6.54,6.54,0,0,0,8.65,0,7.19,7.19,0,0,0,0-9,5.79,5.79,0,0,0-4.33-1.63Zm-5.25-8.57a4.78,4.78,0,0,0,4.33,5.21,4.71,4.71,0,0,0,.92,0,5.26,5.26,0,0,0,3.87-1.38,5.93,5.93,0,0,0,0-7.66,6.15,6.15,0,0,0-7.74,0,5.2,5.2,0,0,0-1.38,3.83Z"/><path class="b" d="M596.53,177.56h13.41v3.59h-18v-3.59q2.17-2.52,6-6.76c2.53-2.83,4.11-4.65,4.76-5.47a19.85,19.85,0,0,0,2.57-3.91,7.41,7.41,0,0,0,.73-3.14,5.53,5.53,0,0,0-1.58-4.1,5.63,5.63,0,0,0-4.15-1.59,11.52,11.52,0,0,0-3.81.7,21.63,21.63,0,0,0-4.29,2.11v-4.31a28.8,28.8,0,0,1,4.34-1.57,15,15,0,0,1,3.7-.53,9.89,9.89,0,0,1,7,2.46A8.53,8.53,0,0,1,609.8,158a10.33,10.33,0,0,1-.66,3.69,18.16,18.16,0,0,1-2.39,4.11c-.33.41-1.33,1.6-3,3.55Z"/><path class="b" d="M173.52,587.36v3.9a14.14,14.14,0,0,0-2.92-1.17,11.49,11.49,0,0,0-2.92-.4,6.65,6.65,0,0,0-5.82,2.86q-2,2.85-2.28,8.63a8,8,0,0,1,2.81-2.82,7.3,7.3,0,0,1,3.73-1,8.47,8.47,0,0,1,6.78,2.89c1.66,1.92,2.48,4.54,2.48,7.86a11.36,11.36,0,0,1-2.59,7.81,8.75,8.75,0,0,1-6.91,2.94,8.36,8.36,0,0,1-7.53-4.2q-2.59-4.2-2.6-12.18,0-7.49,3.2-11.94a10,10,0,0,1,8.59-4.46,13.68,13.68,0,0,1,2.92.32A19.38,19.38,0,0,1,173.52,587.36Zm-7.64,13.4a4.88,4.88,0,0,0-4.09,2,10.39,10.39,0,0,0,0,10.78,5.25,5.25,0,0,0,7.38.83,5,5,0,0,0,.83-.83,10.39,10.39,0,0,0,0-10.78A4.93,4.93,0,0,0,165.88,600.76Z"/><path class="b" d="M602.77,586.67h4.85v20.58h4v3.56h-4v7.44h-3.83v-7.44H590.94v-4.13Zm1,3.72-9.71,16.86h9.71Z"/><path class="b" d="M67.39,367.3H85.67v1.82L75.34,398.89h-4l9.69-28H67.39Z"/><path class="b" d="M695.86,381.86a7.32,7.32,0,0,1,4.31,2.73,8.3,8.3,0,0,1,1.55,5.12,9.1,9.1,0,0,1-2.89,7.23q-2.88,2.56-8.22,2.56a17.59,17.59,0,0,1-3.69-.39,24.21,24.21,0,0,1-3.92-1.17v-4.13a12.58,12.58,0,0,0,3.51,1.57,14.61,14.61,0,0,0,4,.53,8.4,8.4,0,0,0,5.51-1.59,5.67,5.67,0,0,0,1.89-4.61,5.58,5.58,0,0,0-1.76-4.37,7.09,7.09,0,0,0-4.9-1.58h-3.31v-3.51h3.45a6.65,6.65,0,0,0,4.35-1.26,4.44,4.44,0,0,0,1.51-3.63,4.57,4.57,0,0,0-1.55-3.73,6.69,6.69,0,0,0-4.45-1.3,16.08,16.08,0,0,0-3.39.38,29.14,29.14,0,0,0-4,1.18v-3.81a34,34,0,0,1,4.1-1,20.7,20.7,0,0,1,3.6-.34A10.25,10.25,0,0,1,698.5,369a7.49,7.49,0,0,1,2.56,6,7.17,7.17,0,0,1-1.35,4.43A7,7,0,0,1,695.86,381.86Z"/></svg>