<?xml version="1.0" encoding="UTF-8" standalone="no"?>
<svg xmlns:dc="http://purl.org/dc/elements/1.1/" xmlns:cc="http://creativecommons.org/ns#" xmlns:rdf="http://www.w3.org/1999/02/22-rdf-syntax-ns#" xmlns:svg="http://www.w3.org/2000/svg" xmlns="http://www.w3.org/2000/svg" viewBox="0 0 1000 1000" version="1.1" id="svg56" width="1000" height="1000">
  <metadata id="metadata62">
    <rdf:RDF>
      <cc:Work rdf:about="">
        <dc:format>image/svg+xml</dc:format>
        <dc:type rdf:resource="http://purl.org/dc/dcmitype/StillImage"/>
        <dc:title>sequence</dc:title>
      </cc:Work>
    </rdf:RDF>
  </metadata>
  <defs id="defs60"/>
  <title id="title2">sequence</title>
  <g id="text4599-8" style="font-style:normal;font-weight:normal;font-size:40px;line-height:1.25;font-family:sans-serif;letter-spacing:0px;word-spacing:0px;fill:#000000;fill-opacity:1;stroke:none" aria-label="frame 1">
    <path id="path832" style="font-style:normal;font-variant:normal;font-weight:normal;font-stretch:normal;font-family:'DejaVu Sans';-inkscape-font-specification:'DejaVu Sans';fill:#000000" d="m 629.15442,172.68341 v 2.98828 h -3.4375 q -1.93359,0 -2.69531,0.78125 -0.74219,0.78125 -0.74219,2.8125 v 1.9336 h 5.91797 v 2.79296 h -5.91797 v 19.08204 h -3.61328 V 183.992 h -3.4375 v -2.79296 h 3.4375 v -1.52344 q 0,-3.65235 1.69922,-5.3125 1.69922,-1.67969 5.39062,-1.67969 z"/>
    <path id="path834" style="font-style:normal;font-variant:normal;font-weight:normal;font-stretch:normal;font-family:'DejaVu Sans';-inkscape-font-specification:'DejaVu Sans';fill:#000000" d="m 644.81848,184.55841 q -0.60547,-0.35156 -1.32812,-0.50781 -0.70313,-0.17578 -1.5625,-0.17578 -3.04688,0 -4.6875,1.99218 -1.6211,1.97266 -1.6211,5.6836 v 11.52344 h -3.61328 v -21.875 h 3.61328 v 3.39843 q 1.13282,-1.99218 2.94922,-2.94922 1.81641,-0.97656 4.41406,-0.97656 0.3711,0 0.82032,0.0586 0.44922,0.0391 0.99609,0.13671 z"/>
    <path id="path836" style="font-style:normal;font-variant:normal;font-weight:normal;font-stretch:normal;font-family:'DejaVu Sans';-inkscape-font-specification:'DejaVu Sans';fill:#000000" d="m 658.56848,192.07794 q -4.35547,0 -6.03515,0.9961 -1.67969,0.99609 -1.67969,3.39843 0,1.91407 1.25,3.04688 1.26953,1.11328 3.4375,1.11328 2.98828,0 4.78515,-2.10938 1.81641,-2.1289 1.81641,-5.64453 v -0.80078 z m 7.16797,-1.48437 v 12.48047 h -3.59375 v -3.32032 q -1.23047,1.99219 -3.06641,2.94922 -1.83593,0.9375 -4.49218,0.9375 -3.35938,0 -5.35157,-1.875 -1.97265,-1.89453 -1.97265,-5.05859 0,-3.69141 2.46094,-5.56641 2.48046,-1.875 7.38281,-1.875 h 5.03906 v -0.35156 q 0,-2.48047 -1.64062,-3.82813 -1.6211,-1.36718 -4.57032,-1.36718 -1.875,0 -3.65234,0.44922 -1.77734,0.44921 -3.41797,1.34765 v -3.32031 q 1.97266,-0.76172 3.82813,-1.13281 1.85546,-0.39063 3.61328,-0.39063 4.74609,0 7.08984,2.46094 2.34375,2.46094 2.34375,7.46094 z"/>
    <path id="path838" style="font-style:normal;font-variant:normal;font-weight:normal;font-stretch:normal;font-family:'DejaVu Sans';-inkscape-font-specification:'DejaVu Sans';fill:#000000" d="m 690.18958,185.39825 q 1.34765,-2.42187 3.22265,-3.57421 1.875,-1.15235 4.41406,-1.15235 3.41797,0 5.27344,2.40235 1.85547,2.38281 1.85547,6.79687 v 13.20313 h -3.61328 V 189.9881 q 0,-3.14453 -1.11328,-4.66797 -1.11328,-1.52344 -3.39844,-1.52344 -2.79297,0 -4.41406,1.85547 -1.6211,1.85547 -1.6211,5.05859 v 12.36329 h -3.61328 V 189.9881 q 0,-3.16406 -1.11328,-4.66797 -1.11328,-1.52344 -3.4375,-1.52344 -2.7539,0 -4.375,1.875 -1.62109,1.85547 -1.62109,5.03906 v 12.36329 h -3.61328 v -21.875 h 3.61328 v 3.39843 q 1.23047,-2.01172 2.94922,-2.96875 1.71875,-0.95703 4.08203,-0.95703 2.38281,0 4.04297,1.21094 1.67968,1.21094 2.48047,3.51562 z"/>
    <path id="path840" style="font-style:normal;font-variant:normal;font-weight:normal;font-stretch:normal;font-family:'DejaVu Sans';-inkscape-font-specification:'DejaVu Sans';fill:#000000" d="m 730.85364,191.2381 v 1.75781 H 714.3302 q 0.23438,3.71094 2.22656,5.66406 2.01172,1.9336 5.58594,1.9336 2.07031,0 4.00391,-0.50782 1.95312,-0.50781 3.86718,-1.52343 v 3.39843 q -1.93359,0.82032 -3.96484,1.25 -2.03125,0.42969 -4.12109,0.42969 -5.23438,0 -8.30078,-3.04687 -3.04688,-3.04688 -3.04688,-8.24219 0,-5.37109 2.89063,-8.51563 2.91015,-3.16406 7.83203,-3.16406 4.41406,0 6.97265,2.85156 2.57813,2.83204 2.57813,7.71485 z m -3.59375,-1.05469 q -0.0391,-2.94922 -1.66016,-4.70703 -1.60156,-1.75781 -4.25781,-1.75781 -3.00781,0 -4.82422,1.69922 -1.79687,1.69921 -2.07031,4.78515 z"/>
    <path id="path842" style="font-style:normal;font-variant:normal;font-weight:normal;font-stretch:normal;font-family:'DejaVu Sans';-inkscape-font-specification:'DejaVu Sans';fill:#000000" d="m 750.67786,199.75372 h 6.44531 v -22.24609 l -7.01172,1.40625 v -3.59375 l 6.97266,-1.40625 h 3.94531 v 25.83984 h 6.44531 v 3.32032 h -16.79687 z"/>
  </g>
  <g id="text4599-2-9" style="font-style:normal;font-weight:normal;font-size:40px;line-height:1.25;font-family:sans-serif;letter-spacing:0px;word-spacing:0px;fill:#000000;fill-opacity:1;stroke:none" aria-label="frame 7">
    <path id="path806" style="font-style:normal;font-variant:normal;font-weight:normal;font-stretch:normal;font-family:'DejaVu Sans';-inkscape-font-specification:'DejaVu Sans';fill:#000000" d="m 629.15442,794.68341 v 2.98828 h -3.4375 q -1.93359,0 -2.69531,0.78125 -0.74219,0.78125 -0.74219,2.8125 v 1.9336 h 5.91797 v 2.79296 h -5.91797 v 19.08204 h -3.61328 V 805.992 h -3.4375 v -2.79296 h 3.4375 v -1.52344 q 0,-3.65235 1.69922,-5.3125 1.69922,-1.67969 5.39062,-1.67969 z"/>
    <path id="path808" style="font-style:normal;font-variant:normal;font-weight:normal;font-stretch:normal;font-family:'DejaVu Sans';-inkscape-font-specification:'DejaVu Sans';fill:#000000" d="m 644.81848,806.55841 q -0.60547,-0.35156 -1.32812,-0.50781 -0.70313,-0.17578 -1.5625,-0.17578 -3.04688,0 -4.6875,1.99218 -1.6211,1.97266 -1.6211,5.6836 v 11.52344 h -3.61328 v -21.875 h 3.61328 v 3.39843 q 1.13282,-1.99218 2.94922,-2.94922 1.81641,-0.97656 4.41406,-0.97656 0.3711,0 0.82032,0.0586 0.44922,0.0391 0.99609,0.13671 z"/>
    <path id="path810" style="font-style:normal;font-variant:normal;font-weight:normal;font-stretch:normal;font-family:'DejaVu Sans';-inkscape-font-specification:'DejaVu Sans';fill:#000000" d="m 658.56848,814.07794 q -4.35547,0 -6.03515,0.9961 -1.67969,0.99609 -1.67969,3.39843 0,1.91407 1.25,3.04688 1.26953,1.11328 3.4375,1.11328 2.98828,0 4.78515,-2.10938 1.81641,-2.1289 1.81641,-5.64453 v -0.80078 z m 7.16797,-1.48437 v 12.48047 h -3.59375 v -3.32032 q -1.23047,1.99219 -3.06641,2.94922 -1.83593,0.9375 -4.49218,0.9375 -3.35938,0 -5.35157,-1.875 -1.97265,-1.89453 -1.97265,-5.05859 0,-3.69141 2.46094,-5.56641 2.48046,-1.875 7.38281,-1.875 h 5.03906 v -0.35156 q 0,-2.48047 -1.64062,-3.82813 -1.6211,-1.36718 -4.57032,-1.36718 -1.875,0 -3.65234,0.44922 -1.77734,0.44921 -3.41797,1.34765 v -3.32031 q 1.97266,-0.76172 3.82813,-1.13281 1.85546,-0.39063 3.61328,-0.39063 4.74609,0 7.08984,2.46094 2.34375,2.46094 2.34375,7.46094 z"/>
    <path id="path812" style="font-style:normal;font-variant:normal;font-weight:normal;font-stretch:normal;font-family:'DejaVu Sans';-inkscape-font-specification:'DejaVu Sans';fill:#000000" d="m 690.18958,807.39825 q 1.34765,-2.42187 3.22265,-3.57421 1.875,-1.15235 4.41406,-1.15235 3.41797,0 5.27344,2.40235 1.85547,2.38281 1.85547,6.79687 v 13.20313 h -3.61328 V 811.9881 q 0,-3.14453 -1.11328,-4.66797 -1.11328,-1.52344 -3.39844,-1.52344 -2.79297,0 -4.41406,1.85547 -1.6211,1.85547 -1.6211,5.05859 v 12.36329 h -3.61328 V 811.9881 q 0,-3.16406 -1.11328,-4.66797 -1.11328,-1.52344 -3.4375,-1.52344 -2.7539,0 -4.375,1.875 -1.62109,1.85547 -1.62109,5.03906 v 12.36329 h -3.61328 v -21.875 h 3.61328 v 3.39843 q 1.23047,-2.01172 2.94922,-2.96875 1.71875,-0.95703 4.08203,-0.95703 2.38281,0 4.04297,1.21094 1.67968,1.21094 2.48047,3.51562 z"/>
    <path id="path814" style="font-style:normal;font-variant:normal;font-weight:normal;font-stretch:normal;font-family:'DejaVu Sans';-inkscape-font-specification:'DejaVu Sans';fill:#000000" d="m 730.85364,813.2381 v 1.75781 H 714.3302 q 0.23438,3.71094 2.22656,5.66406 2.01172,1.9336 5.58594,1.9336 2.07031,0 4.00391,-0.50782 1.95312,-0.50781 3.86718,-1.52343 v 3.39843 q -1.93359,0.82032 -3.96484,1.25 -2.03125,0.42969 -4.12109,0.42969 -5.23438,0 -8.30078,-3.04687 -3.04688,-3.04688 -3.04688,-8.24219 0,-5.37109 2.89063,-8.51563 2.91015,-3.16406 7.83203,-3.16406 4.41406,0 6.97265,2.85156 2.57813,2.83204 2.57813,7.71485 z m -3.59375,-1.05469 q -0.0391,-2.94922 -1.66016,-4.70703 -1.60156,-1.75781 -4.25781,-1.75781 -3.00781,0 -4.82422,1.69922 -1.79687,1.69921 -2.07031,4.78515 z"/>
    <path id="path816" style="font-style:normal;font-variant:normal;font-weight:normal;font-stretch:normal;font-family:'DejaVu Sans';-inkscape-font-specification:'DejaVu Sans';fill:#000000" d="m 748.99817,795.91388 h 18.75 v 1.67969 l -10.58594,27.48047 h -4.12109 l 9.96094,-25.83985 h -14.00391 z"/>
  </g>
  <circle cx="500" cy="190.26999" r="65.269997" style="fill:none;stroke:#004775;stroke-width:7px;stroke-miterlimit:10;stroke-opacity:0.03921569" id="circle22"/>
  <circle cx="500" cy="807.72998" r="65.269997" style="fill:none;stroke:#004775;stroke-width:7px;stroke-miterlimit:10" id="circle24"/>
  <circle cx="500" cy="293.17996" r="65.269997" style="fill:none;stroke:#004775;stroke-width:7px;stroke-miterlimit:10;stroke-opacity:0.15686275" id="circle22-7"/>
  <circle cx="500" cy="396.08997" r="65.269997" style="fill:none;stroke:#004775;stroke-width:7px;stroke-miterlimit:10;stroke-opacity:0.2745098" id="circle22-9"/>
  <circle cx="500" cy="499" r="65.269997" style="fill:none;stroke:#004775;stroke-width:7px;stroke-miterlimit:10;stroke-opacity:0.39215686" id="circle22-3"/>
  <circle cx="500" cy="601.90997" r="65.269997" style="fill:none;stroke:#004775;stroke-width:7px;stroke-miterlimit:10;stroke-opacity:0.5098038" id="circle22-8"/>
  <circle cx="500" cy="704.82001" r="65.269997" style="fill:none;stroke:#004775;stroke-width:7px;stroke-miterlimit:10;stroke-opacity:0.62745098" id="circle22-0"/>
  <g id="text4599" style="font-style:normal;font-weight:normal;font-size:40px;line-height:1.25;font-family:sans-serif;letter-spacing:0px;word-spacing:0px;fill:#000000;fill-opacity:1;stroke:none" aria-label="frame 1">
    <path id="path819" style="font-style:normal;font-variant:normal;font-weight:normal;font-stretch:normal;font-family:'DejaVu Sans';-inkscape-font-specification:'DejaVu Sans';fill:#00ff00" d="m 626.5957,170.26624 v 2.98828 h -3.4375 q -1.93359,0 -2.69531,0.78125 -0.74219,0.78125 -0.74219,2.8125 v 1.93359 h 5.91797 v 2.79297 h -5.91797 v 19.08203 h -3.61328 v -19.08203 h -3.4375 v -2.79297 h 3.4375 v -1.52344 q 0,-3.65234 1.69922,-5.3125 1.69922,-1.67968 5.39063,-1.67968 z"/>
    <path id="path821" style="font-style:normal;font-variant:normal;font-weight:normal;font-stretch:normal;font-family:'DejaVu Sans';-inkscape-font-specification:'DejaVu Sans';fill:#00ff00" d="m 642.25977,182.14124 q -0.60547,-0.35157 -1.32813,-0.50782 -0.70312,-0.17578 -1.5625,-0.17578 -3.04687,0 -4.6875,1.99219 -1.62109,1.97266 -1.62109,5.68359 v 11.52344 h -3.61328 v -21.875 h 3.61328 v 3.39844 q 1.13281,-1.99219 2.94922,-2.94922 1.8164,-0.97656 4.41406,-0.97656 0.37109,0 0.82031,0.0586 0.44922,0.0391 0.99609,0.13672 z"/>
    <path id="path823" style="font-style:normal;font-variant:normal;font-weight:normal;font-stretch:normal;font-family:'DejaVu Sans';-inkscape-font-specification:'DejaVu Sans';fill:#00ff00" d="m 656.00977,189.66077 q -4.35547,0 -6.03516,0.99609 -1.67969,0.99609 -1.67969,3.39844 0,1.91406 1.25,3.04687 1.26953,1.11328 3.4375,1.11328 2.98828,0 4.78516,-2.10937 1.8164,-2.12891 1.8164,-5.64453 v -0.80078 z m 7.16796,-1.48438 v 12.48047 h -3.59375 v -3.32031 q -1.23046,1.99219 -3.0664,2.94922 -1.83594,0.9375 -4.49219,0.9375 -3.35937,0 -5.35156,-1.875 -1.97266,-1.89453 -1.97266,-5.0586 0,-3.6914 2.46094,-5.5664 2.48047,-1.875 7.38281,-1.875 h 5.03906 v -0.35157 q 0,-2.48046 -1.64062,-3.82812 -1.62109,-1.36719 -4.57031,-1.36719 -1.875,0 -3.65235,0.44922 -1.77734,0.44922 -3.41797,1.34766 v -3.32032 q 1.97266,-0.76171 3.82813,-1.13281 1.85547,-0.39062 3.61328,-0.39062 4.74609,0 7.08984,2.46093 2.34375,2.46094 2.34375,7.46094 z"/>
    <path id="path825" style="font-style:normal;font-variant:normal;font-weight:normal;font-stretch:normal;font-family:'DejaVu Sans';-inkscape-font-specification:'DejaVu Sans';fill:#00ff00" d="m 687.63086,182.98108 q 1.34766,-2.42188 3.22266,-3.57422 1.875,-1.15234 4.41406,-1.15234 3.41797,0 5.27344,2.40234 1.85546,2.38281 1.85546,6.79688 v 13.20312 h -3.61328 v -13.08594 q 0,-3.14453 -1.11328,-4.66797 -1.11328,-1.52343 -3.39844,-1.52343 -2.79296,0 -4.41406,1.85547 -1.62109,1.85546 -1.62109,5.05859 v 12.36328 h -3.61328 v -13.08594 q 0,-3.16406 -1.11328,-4.66797 -1.11329,-1.52343 -3.4375,-1.52343 -2.75391,0 -4.375,1.875 -1.6211,1.85547 -1.6211,5.03906 v 12.36328 h -3.61328 v -21.875 h 3.61328 v 3.39844 q 1.23047,-2.01172 2.94922,-2.96875 1.71875,-0.95703 4.08203,-0.95703 2.38281,0 4.04297,1.21093 1.67969,1.21094 2.48047,3.51563 z"/>
    <path id="path827" style="font-style:normal;font-variant:normal;font-weight:normal;font-stretch:normal;font-family:'DejaVu Sans';-inkscape-font-specification:'DejaVu Sans';fill:#00ff00" d="m 728.29492,188.82092 v 1.75782 h -16.52344 q 0.23438,3.71093 2.22657,5.66406 2.01172,1.93359 5.58593,1.93359 2.07032,0 4.00391,-0.50781 1.95313,-0.50781 3.86719,-1.52344 v 3.39844 q -1.9336,0.82031 -3.96485,1.25 -2.03125,0.42969 -4.12109,0.42969 -5.23437,0 -8.30078,-3.04688 -3.04688,-3.04687 -3.04688,-8.24219 0,-5.37109 2.89063,-8.51562 2.91016,-3.16406 7.83203,-3.16406 4.41406,0 6.97266,2.85156 2.57812,2.83203 2.57812,7.71484 z m -3.59375,-1.05468 q -0.0391,-2.94922 -1.66015,-4.70704 -1.60157,-1.75781 -4.25782,-1.75781 -3.00781,0 -4.82422,1.69922 -1.79687,1.69922 -2.07031,4.78516 z"/>
    <path id="path829" style="font-style:normal;font-variant:normal;font-weight:normal;font-stretch:normal;font-family:'DejaVu Sans';-inkscape-font-specification:'DejaVu Sans';fill:#00ff00" d="m 748.11914,197.33655 h 6.44531 v -22.2461 l -7.01172,1.40625 v -3.59375 l 6.97266,-1.40625 h 3.94531 v 25.83985 h 6.44532 v 3.32031 h -16.79688 z"/>
  </g>
  <g id="text4599-2" style="font-style:normal;font-weight:normal;font-size:40px;line-height:1.25;font-family:sans-serif;letter-spacing:0px;word-spacing:0px;fill:#000000;fill-opacity:1;stroke:none" aria-label="frame 7">
    <path id="path793" style="font-style:normal;font-variant:normal;font-weight:normal;font-stretch:normal;font-family:'DejaVu Sans';-inkscape-font-specification:'DejaVu Sans';fill:#00ff00" d="m 626.5957,792.26624 v 2.98828 h -3.4375 q -1.93359,0 -2.69531,0.78125 -0.74219,0.78125 -0.74219,2.8125 v 1.93359 h 5.91797 v 2.79297 h -5.91797 v 19.08203 h -3.61328 v -19.08203 h -3.4375 v -2.79297 h 3.4375 v -1.52344 q 0,-3.65234 1.69922,-5.3125 1.69922,-1.67968 5.39063,-1.67968 z"/>
    <path id="path795" style="font-style:normal;font-variant:normal;font-weight:normal;font-stretch:normal;font-family:'DejaVu Sans';-inkscape-font-specification:'DejaVu Sans';fill:#00ff00" d="m 642.25977,804.14124 q -0.60547,-0.35157 -1.32813,-0.50782 -0.70312,-0.17578 -1.5625,-0.17578 -3.04687,0 -4.6875,1.99219 -1.62109,1.97266 -1.62109,5.68359 v 11.52344 h -3.61328 v -21.875 h 3.61328 v 3.39844 q 1.13281,-1.99219 2.94922,-2.94922 1.8164,-0.97656 4.41406,-0.97656 0.37109,0 0.82031,0.0586 0.44922,0.0391 0.99609,0.13672 z"/>
    <path id="path797" style="font-style:normal;font-variant:normal;font-weight:normal;font-stretch:normal;font-family:'DejaVu Sans';-inkscape-font-specification:'DejaVu Sans';fill:#00ff00" d="m 656.00977,811.66077 q -4.35547,0 -6.03516,0.99609 -1.67969,0.99609 -1.67969,3.39844 0,1.91406 1.25,3.04687 1.26953,1.11328 3.4375,1.11328 2.98828,0 4.78516,-2.10937 1.8164,-2.12891 1.8164,-5.64453 v -0.80078 z m 7.16796,-1.48438 v 12.48047 h -3.59375 v -3.32031 q -1.23046,1.99219 -3.0664,2.94922 -1.83594,0.9375 -4.49219,0.9375 -3.35937,0 -5.35156,-1.875 -1.97266,-1.89453 -1.97266,-5.0586 0,-3.6914 2.46094,-5.5664 2.48047,-1.875 7.38281,-1.875 h 5.03906 v -0.35157 q 0,-2.48046 -1.64062,-3.82812 -1.62109,-1.36719 -4.57031,-1.36719 -1.875,0 -3.65235,0.44922 -1.77734,0.44922 -3.41797,1.34766 v -3.32032 q 1.97266,-0.76171 3.82813,-1.13281 1.85547,-0.39062 3.61328,-0.39062 4.74609,0 7.08984,2.46093 2.34375,2.46094 2.34375,7.46094 z"/>
    <path id="path799" style="font-style:normal;font-variant:normal;font-weight:normal;font-stretch:normal;font-family:'DejaVu Sans';-inkscape-font-specification:'DejaVu Sans';fill:#00ff00" d="m 687.63086,804.98108 q 1.34766,-2.42188 3.22266,-3.57422 1.875,-1.15234 4.41406,-1.15234 3.41797,0 5.27344,2.40234 1.85546,2.38281 1.85546,6.79688 v 13.20312 h -3.61328 v -13.08594 q 0,-3.14453 -1.11328,-4.66797 -1.11328,-1.52343 -3.39844,-1.52343 -2.79296,0 -4.41406,1.85547 -1.62109,1.85546 -1.62109,5.05859 v 12.36328 h -3.61328 v -13.08594 q 0,-3.16406 -1.11328,-4.66797 -1.11329,-1.52343 -3.4375,-1.52343 -2.75391,0 -4.375,1.875 -1.6211,1.85547 -1.6211,5.03906 v 12.36328 h -3.61328 v -21.875 h 3.61328 v 3.39844 q 1.23047,-2.01172 2.94922,-2.96875 1.71875,-0.95703 4.08203,-0.95703 2.38281,0 4.04297,1.21093 1.67969,1.21094 2.48047,3.51563 z"/>
    <path id="path801" style="font-style:normal;font-variant:normal;font-weight:normal;font-stretch:normal;font-family:'DejaVu Sans';-inkscape-font-specification:'DejaVu Sans';fill:#00ff00" d="m 728.29492,810.82092 v 1.75782 h -16.52344 q 0.23438,3.71093 2.22657,5.66406 2.01172,1.93359 5.58593,1.93359 2.07032,0 4.00391,-0.50781 1.95313,-0.50781 3.86719,-1.52344 v 3.39844 q -1.9336,0.82031 -3.96485,1.25 -2.03125,0.42969 -4.12109,0.42969 -5.23437,0 -8.30078,-3.04688 -3.04688,-3.04687 -3.04688,-8.24219 0,-5.37109 2.89063,-8.51562 2.91016,-3.16406 7.83203,-3.16406 4.41406,0 6.97266,2.85156 2.57812,2.83203 2.57812,7.71484 z m -3.59375,-1.05468 q -0.0391,-2.94922 -1.66015,-4.70704 -1.60157,-1.75781 -4.25782,-1.75781 -3.00781,0 -4.82422,1.69922 -1.79687,1.69922 -2.07031,4.78516 z"/>
    <path id="path803" style="font-style:normal;font-variant:normal;font-weight:normal;font-stretch:normal;font-family:'DejaVu Sans';-inkscape-font-specification:'DejaVu Sans';fill:#00ff00" d="m 746.43945,793.4967 h 18.75 v 1.67969 l -10.58593,27.48047 h -4.1211 l 9.96094,-25.83984 h -14.00391 z"/>
  </g>
</svg>