<svg id="svg1592" xmlns="http://www.w3.org/2000/svg" viewBox="0 0 500 380.02"><defs><style>.cls-1{fill:#fff;stroke:#047;stroke-miterlimit:10;stroke-width:2.5px;}.cls-2{fill:#047;}</style></defs><title>lists-of-lists-bar-chart</title><rect class="cls-1" x="100.48" y="39.83" width="100.02" height="50.14"/><rect class="cls-1" x="100.48" y="190.25" width="100.02" height="50.14"/><rect class="cls-1" x="100.48" y="89.97" width="160.26" height="50.14"/><rect class="cls-1" x="100.48" y="140.11" width="200.13" height="50.14"/><rect class="cls-1" x="100.48" y="240.39" width="160.26" height="50.14"/><rect class="cls-1" x="100.48" y="290.53" width="160.26" height="50.14"/><path class="cls-2" d="M37.3,58.7h1.35V70.1H37.3Z"/><path class="cls-2" d="M47.89,65.42V70.1H46.54V68.86A3,3,0,0,1,45.39,70a3.73,3.73,0,0,1-1.68.35,2.81,2.81,0,0,1-2-.7,2.52,2.52,0,0,1-.74-1.9,2.43,2.43,0,0,1,.93-2.08,4.49,4.49,0,0,1,2.76-.71h1.89v-.13a1.76,1.76,0,0,0-.61-1.44,2.61,2.61,0,0,0-1.72-.51,5.71,5.71,0,0,0-1.37.17,5.19,5.19,0,0,0-1.28.51V62.27A9.36,9.36,0,0,1,43,61.84a7,7,0,0,1,1.35-.14,3.53,3.53,0,0,1,2.66.92A4,4,0,0,1,47.89,65.42ZM45.2,66a4.79,4.79,0,0,0-2.26.37,1.36,1.36,0,0,0-.63,1.28,1.42,1.42,0,0,0,.47,1.13,1.8,1.8,0,0,0,1.28.43,2.25,2.25,0,0,0,1.8-.8,3.15,3.15,0,0,0,.68-2.11V66Z"/><path class="cls-2" d="M52,63.14A2.71,2.71,0,0,1,53,62.06a3.14,3.14,0,0,1,1.55-.36A3,3,0,0,1,57,62.89a5.7,5.7,0,0,1,0,6.24,3,3,0,0,1-2.43,1.18A3.25,3.25,0,0,1,53,70,2.81,2.81,0,0,1,52,68.87V70.1H50.61V58.7H52ZM56.55,66a3.94,3.94,0,0,0-.61-2.34,2.1,2.1,0,0,0-3.36,0A3.94,3.94,0,0,0,52,66a3.89,3.89,0,0,0,.61,2.33,2.09,2.09,0,0,0,3.36,0A3.89,3.89,0,0,0,56.55,66Z"/><path class="cls-2" d="M67.2,65.66v.66H61a3.05,3.05,0,0,0,.83,2.12,2.87,2.87,0,0,0,2.1.73,5.82,5.82,0,0,0,1.5-.19,7,7,0,0,0,1.45-.57v1.27a8,8,0,0,1-1.49.47,7.28,7.28,0,0,1-1.55.16,4.2,4.2,0,0,1-3.1-1.14,4.14,4.14,0,0,1-1.15-3.09,4.53,4.53,0,0,1,1.09-3.2,3.77,3.77,0,0,1,2.93-1.18,3.36,3.36,0,0,1,2.62,1.07A4.15,4.15,0,0,1,67.2,65.66Zm-1.35-.39a2.58,2.58,0,0,0-.61-1.77,2.09,2.09,0,0,0-1.61-.66,2.54,2.54,0,0,0-1.8.64,2.68,2.68,0,0,0-.78,1.79Z"/><path class="cls-2" d="M69.41,58.7h1.35V70.1H69.41Z"/><path class="cls-2" d="M78.8,68.86h2.41V60.51L78.58,61V59.69l2.62-.52h1.48v9.69h2.41V70.1H78.8Z"/><path class="cls-2" d="M37.3,108.84h1.35v11.4H37.3Z"/><path class="cls-2" d="M47.89,115.56v4.68H46.54V119a3,3,0,0,1-1.15,1.1,3.73,3.73,0,0,1-1.68.35,2.81,2.81,0,0,1-2-.7,2.54,2.54,0,0,1-.74-1.9,2.43,2.43,0,0,1,.93-2.08,4.49,4.49,0,0,1,2.76-.71h1.89v-.13a1.76,1.76,0,0,0-.61-1.44,2.61,2.61,0,0,0-1.72-.51,5.71,5.71,0,0,0-1.37.17,5.19,5.19,0,0,0-1.28.51v-1.25A9.36,9.36,0,0,1,43,112a7,7,0,0,1,1.35-.14,3.53,3.53,0,0,1,2.66.92A4,4,0,0,1,47.89,115.56Zm-2.69.56a4.79,4.79,0,0,0-2.26.37,1.35,1.35,0,0,0-.63,1.27,1.43,1.43,0,0,0,.47,1.14,1.85,1.85,0,0,0,1.28.42,2.24,2.24,0,0,0,1.8-.79,3.15,3.15,0,0,0,.68-2.11v-.3Z"/><path class="cls-2" d="M52,113.28A2.81,2.81,0,0,1,53,112.19a3.25,3.25,0,0,1,1.55-.35A2.93,2.93,0,0,1,57,113a5.7,5.7,0,0,1,0,6.24,3,3,0,0,1-2.43,1.18A3.25,3.25,0,0,1,53,120.1,2.81,2.81,0,0,1,52,119v1.23H50.61v-11.4H52Zm4.58,2.87a3.92,3.92,0,0,0-.61-2.34,2.1,2.1,0,0,0-3.36,0,4.77,4.77,0,0,0,0,4.67,2.1,2.1,0,0,0,3.36,0A3.89,3.89,0,0,0,56.55,116.15Z"/><path class="cls-2" d="M67.2,115.8v.66H61a3.05,3.05,0,0,0,.83,2.12,2.87,2.87,0,0,0,2.1.73,5.82,5.82,0,0,0,1.5-.19,7,7,0,0,0,1.45-.57v1.27a8,8,0,0,1-1.49.47,7.28,7.28,0,0,1-1.55.16,4.2,4.2,0,0,1-3.1-1.14,4.14,4.14,0,0,1-1.15-3.09,4.53,4.53,0,0,1,1.09-3.2,3.77,3.77,0,0,1,2.93-1.18,3.33,3.33,0,0,1,2.62,1.07A4.15,4.15,0,0,1,67.2,115.8Zm-1.35-.39a2.58,2.58,0,0,0-.61-1.77,2.09,2.09,0,0,0-1.61-.66,2.49,2.49,0,0,0-1.8.64,2.68,2.68,0,0,0-.78,1.79Z"/><path class="cls-2" d="M69.41,108.84h1.35v11.4H69.41Z"/><path class="cls-2" d="M79.81,119H85v1.24H78V119c.57-.59,1.33-1.37,2.3-2.34s1.58-1.62,1.83-1.9a7,7,0,0,0,1-1.35,2.36,2.36,0,0,0,.28-1.09,1.82,1.82,0,0,0-.61-1.42,2.33,2.33,0,0,0-1.59-.55,4.91,4.91,0,0,0-1.47.24,9,9,0,0,0-1.65.74v-1.5a11.08,11.08,0,0,1,1.67-.54,6.27,6.27,0,0,1,1.42-.18,4.07,4.07,0,0,1,2.71.85,2.81,2.81,0,0,1,1,2.27,3.47,3.47,0,0,1-.25,1.28,6.51,6.51,0,0,1-.92,1.42c-.13.14-.51.55-1.17,1.23S81,117.78,79.81,119Z"/><path class="cls-2" d="M37.3,159h1.35v11.4H37.3Z"/><path class="cls-2" d="M47.89,165.7v4.68H46.54v-1.25a3,3,0,0,1-1.15,1.11,3.73,3.73,0,0,1-1.68.35,2.78,2.78,0,0,1-2-.71A2.5,2.5,0,0,1,41,168a2.46,2.46,0,0,1,.93-2.09,4.56,4.56,0,0,1,2.76-.7h1.89v-.13a1.76,1.76,0,0,0-.61-1.44,2.61,2.61,0,0,0-1.72-.51,5.71,5.71,0,0,0-1.37.17,5.57,5.57,0,0,0-1.28.5v-1.24a9.36,9.36,0,0,1,1.44-.43,7,7,0,0,1,1.35-.14,3.53,3.53,0,0,1,2.66.92A4,4,0,0,1,47.89,165.7Zm-2.69.56a4.79,4.79,0,0,0-2.26.37,1.35,1.35,0,0,0-.63,1.27,1.43,1.43,0,0,0,.47,1.14,1.85,1.85,0,0,0,1.28.42,2.24,2.24,0,0,0,1.8-.79,3.16,3.16,0,0,0,.68-2.11v-.3Z"/><path class="cls-2" d="M52,163.42A2.81,2.81,0,0,1,53,162.33a3.25,3.25,0,0,1,1.55-.35A3,3,0,0,1,57,163.16a5.7,5.7,0,0,1,0,6.24,2.93,2.93,0,0,1-2.43,1.19,3.25,3.25,0,0,1-1.55-.35A2.81,2.81,0,0,1,52,169.15v1.23H50.61V159H52Zm4.58,2.86a3.91,3.91,0,0,0-.61-2.33,2.1,2.1,0,0,0-3.36,0,4.77,4.77,0,0,0,0,4.67,2.1,2.1,0,0,0,3.36,0A3.92,3.92,0,0,0,56.55,166.28Z"/><path class="cls-2" d="M67.2,165.94v.66H61a3.07,3.07,0,0,0,.83,2.12,2.87,2.87,0,0,0,2.1.73,5.82,5.82,0,0,0,1.5-.19,7,7,0,0,0,1.45-.57V170a8,8,0,0,1-1.49.47,7.28,7.28,0,0,1-1.55.16,4.2,4.2,0,0,1-3.1-1.14,4.14,4.14,0,0,1-1.15-3.09,4.53,4.53,0,0,1,1.09-3.2A3.77,3.77,0,0,1,63.62,162,3.36,3.36,0,0,1,66.24,163,4.18,4.18,0,0,1,67.2,165.94Zm-1.35-.4a2.57,2.57,0,0,0-.61-1.76,2.09,2.09,0,0,0-1.61-.66,2.49,2.49,0,0,0-1.8.64,2.68,2.68,0,0,0-.78,1.79Z"/><path class="cls-2" d="M69.41,159h1.35v11.4H69.41Z"/><path class="cls-2" d="M83,164.48a2.85,2.85,0,0,1,1.66,1,2.67,2.67,0,0,1,.6,1.77,3,3,0,0,1-1.12,2.51,5,5,0,0,1-3.16.88,7.81,7.81,0,0,1-1.42-.13,10.57,10.57,0,0,1-1.5-.41v-1.43a5,5,0,0,0,1.35.54,5.83,5.83,0,0,0,1.53.19,3.55,3.55,0,0,0,2.12-.55,1.9,1.9,0,0,0,.73-1.6,1.84,1.84,0,0,0-.68-1.51,2.9,2.9,0,0,0-1.89-.55H80v-1.21H81.3a2.75,2.75,0,0,0,1.67-.44,1.47,1.47,0,0,0,.58-1.26,1.52,1.52,0,0,0-.6-1.29,2.81,2.81,0,0,0-1.71-.45,7.73,7.73,0,0,0-1.3.13,12.61,12.61,0,0,0-1.53.41v-1.32c.56-.15,1.09-.27,1.58-.35a9.83,9.83,0,0,1,1.38-.11A4.22,4.22,0,0,1,84,160a2.5,2.5,0,0,1,1,2.07,2.32,2.32,0,0,1-.52,1.54A2.76,2.76,0,0,1,83,164.48Z"/><path class="cls-2" d="M37.3,209.12h1.35v11.4H37.3Z"/><path class="cls-2" d="M47.89,215.84v4.68H46.54v-1.25a3,3,0,0,1-1.15,1.11,3.73,3.73,0,0,1-1.68.35,2.78,2.78,0,0,1-2-.71,2.5,2.5,0,0,1-.74-1.89,2.46,2.46,0,0,1,.93-2.09,4.49,4.49,0,0,1,2.76-.7h1.89v-.13a1.76,1.76,0,0,0-.61-1.44,2.61,2.61,0,0,0-1.72-.51,5.71,5.71,0,0,0-1.37.17,5.57,5.57,0,0,0-1.28.5v-1.24a8.37,8.37,0,0,1,1.44-.43,6.32,6.32,0,0,1,1.35-.14A3.49,3.49,0,0,1,47,213,4,4,0,0,1,47.89,215.84Zm-2.69.55a4.77,4.77,0,0,0-2.26.38,1.35,1.35,0,0,0-.63,1.27,1.43,1.43,0,0,0,.47,1.14,1.85,1.85,0,0,0,1.28.42,2.24,2.24,0,0,0,1.8-.79,3.17,3.17,0,0,0,.68-2.12v-.3Z"/><path class="cls-2" d="M52,213.56A2.81,2.81,0,0,1,53,212.47a3.25,3.25,0,0,1,1.55-.35A3,3,0,0,1,57,213.3a5.7,5.7,0,0,1,0,6.24,3,3,0,0,1-2.43,1.19,3.25,3.25,0,0,1-1.55-.35A2.81,2.81,0,0,1,52,219.29v1.23H50.61v-11.4H52Zm4.58,2.86a3.89,3.89,0,0,0-.61-2.33,2.1,2.1,0,0,0-3.36,0,4.77,4.77,0,0,0,0,4.67,2.1,2.1,0,0,0,3.36,0A3.92,3.92,0,0,0,56.55,216.42Z"/><path class="cls-2" d="M67.2,216.08v.66H61a3.07,3.07,0,0,0,.83,2.12,2.91,2.91,0,0,0,2.1.73,6.29,6.29,0,0,0,1.5-.19,7,7,0,0,0,1.45-.57v1.27a8,8,0,0,1-1.49.47,7.28,7.28,0,0,1-1.55.16,4.2,4.2,0,0,1-3.1-1.14,4.14,4.14,0,0,1-1.15-3.09,4.52,4.52,0,0,1,1.09-3.2,3.77,3.77,0,0,1,2.93-1.18,3.36,3.36,0,0,1,2.62,1.06A4.18,4.18,0,0,1,67.2,216.08Zm-1.35-.4a2.57,2.57,0,0,0-.61-1.76,2.09,2.09,0,0,0-1.61-.66,2.49,2.49,0,0,0-1.8.64,2.68,2.68,0,0,0-.78,1.79Z"/><path class="cls-2" d="M69.41,209.12h1.35v11.4H69.41Z"/><path class="cls-2" d="M82.22,209.58h1.86v7.13h1.56v1.23H84.08v2.58H82.6v-2.58H77.67v-1.43Zm.38,1.29-3.73,5.84H82.6Z"/><path class="cls-2" d="M37.3,259.26h1.35v11.4H37.3Z"/><path class="cls-2" d="M47.89,266v4.68H46.54v-1.25a2.88,2.88,0,0,1-1.15,1.1,3.6,3.6,0,0,1-1.68.36,2.82,2.82,0,0,1-2-.71,2.5,2.5,0,0,1-.74-1.89,2.46,2.46,0,0,1,.93-2.09,4.49,4.49,0,0,1,2.76-.7h1.89v-.13a1.76,1.76,0,0,0-.61-1.44,2.61,2.61,0,0,0-1.72-.51,5.71,5.71,0,0,0-1.37.17,5.57,5.57,0,0,0-1.28.5v-1.24A8.37,8.37,0,0,1,43,262.4a6.32,6.32,0,0,1,1.35-.14,3.49,3.49,0,0,1,2.66.92A4,4,0,0,1,47.89,266Zm-2.69.55a4.77,4.77,0,0,0-2.26.38,1.35,1.35,0,0,0-.63,1.27,1.43,1.43,0,0,0,.47,1.14,1.85,1.85,0,0,0,1.28.42,2.24,2.24,0,0,0,1.8-.79,3.17,3.17,0,0,0,.68-2.12v-.3Z"/><path class="cls-2" d="M52,263.7A2.81,2.81,0,0,1,53,262.61a3.25,3.25,0,0,1,1.55-.35A3,3,0,0,1,57,263.44a5.7,5.7,0,0,1,0,6.24,3,3,0,0,1-2.43,1.19,3.14,3.14,0,0,1-1.55-.36A2.71,2.71,0,0,1,52,269.43v1.23H50.61v-11.4H52Zm4.58,2.86a3.89,3.89,0,0,0-.61-2.33,2.09,2.09,0,0,0-3.36,0,3.89,3.89,0,0,0-.61,2.33,3.94,3.94,0,0,0,.61,2.34,2.1,2.1,0,0,0,3.36,0A3.94,3.94,0,0,0,56.55,266.56Z"/><path class="cls-2" d="M67.2,266.22v.66H61a3.07,3.07,0,0,0,.83,2.12,2.91,2.91,0,0,0,2.1.73,6.29,6.29,0,0,0,1.5-.19,6.56,6.56,0,0,0,1.45-.58v1.28a8.88,8.88,0,0,1-1.49.47,7.28,7.28,0,0,1-1.55.16,3.95,3.95,0,0,1-4.25-4.23,4.52,4.52,0,0,1,1.09-3.2,3.77,3.77,0,0,1,2.93-1.18,3.36,3.36,0,0,1,2.62,1.06A4.18,4.18,0,0,1,67.2,266.22Zm-1.35-.4a2.57,2.57,0,0,0-.61-1.76,2.09,2.09,0,0,0-1.61-.66,2.49,2.49,0,0,0-1.8.64,2.68,2.68,0,0,0-.78,1.79Z"/><path class="cls-2" d="M69.41,259.26h1.35v11.4H69.41Z"/><path class="cls-2" d="M78.55,259.72h5.81V261H79.91v2.68a3.79,3.79,0,0,1,.64-.17,4.74,4.74,0,0,1,.65-.05,4.06,4.06,0,0,1,2.9,1,3.57,3.57,0,0,1,1.07,2.72,3.48,3.48,0,0,1-1.1,2.74,4.52,4.52,0,0,1-3.1,1,8.36,8.36,0,0,1-1.4-.12,10.87,10.87,0,0,1-1.48-.35v-1.49a5.69,5.69,0,0,0,2.85.71,2.9,2.9,0,0,0,2-.66,2.58,2.58,0,0,0,0-3.62,2.9,2.9,0,0,0-2-.67,5.92,5.92,0,0,0-1.18.13,6.91,6.91,0,0,0-1.21.41Z"/><path class="cls-2" d="M37.3,309.4h1.35v11.39H37.3Z"/><path class="cls-2" d="M47.89,316.12v4.67H46.54v-1.24a2.88,2.88,0,0,1-1.15,1.1,3.6,3.6,0,0,1-1.68.36,2.82,2.82,0,0,1-2-.71,2.5,2.5,0,0,1-.74-1.89,2.45,2.45,0,0,1,.93-2.09,4.49,4.49,0,0,1,2.76-.7h1.89v-.13a1.76,1.76,0,0,0-.61-1.44,2.61,2.61,0,0,0-1.72-.51,5.25,5.25,0,0,0-1.37.17,5.57,5.57,0,0,0-1.28.5V313a8.37,8.37,0,0,1,1.44-.43,6.34,6.34,0,0,1,1.35-.15,3.5,3.5,0,0,1,2.66.93A4,4,0,0,1,47.89,316.12Zm-2.69.55a4.93,4.93,0,0,0-2.26.37,1.37,1.37,0,0,0-.63,1.28,1.43,1.43,0,0,0,.47,1.14,1.85,1.85,0,0,0,1.28.42,2.22,2.22,0,0,0,1.8-.8,3.13,3.13,0,0,0,.68-2.11v-.3Z"/><path class="cls-2" d="M52,313.84A2.81,2.81,0,0,1,53,312.75a3.14,3.14,0,0,1,1.55-.36A3,3,0,0,1,57,313.58a5.7,5.7,0,0,1,0,6.24A3,3,0,0,1,54.59,321a3.14,3.14,0,0,1-1.55-.36A2.74,2.74,0,0,1,52,319.56v1.23H50.61V309.4H52Zm4.58,2.86a3.89,3.89,0,0,0-.61-2.33,2.09,2.09,0,0,0-3.36,0,4.75,4.75,0,0,0,0,4.66,2.09,2.09,0,0,0,3.36,0A3.89,3.89,0,0,0,56.55,316.7Z"/><path class="cls-2" d="M67.2,316.36V317H61a3.09,3.09,0,0,0,.83,2.12,2.91,2.91,0,0,0,2.1.73,5.83,5.83,0,0,0,1.5-.2,6.06,6.06,0,0,0,1.45-.57v1.28a8.88,8.88,0,0,1-1.49.47,8,8,0,0,1-1.55.16,4,4,0,0,1-4.25-4.24,4.51,4.51,0,0,1,1.09-3.19,3.78,3.78,0,0,1,2.93-1.19,3.36,3.36,0,0,1,2.62,1.07A4.18,4.18,0,0,1,67.2,316.36Zm-1.35-.4a2.56,2.56,0,0,0-.61-1.76,2.09,2.09,0,0,0-1.61-.66,2.53,2.53,0,0,0-1.8.63,2.73,2.73,0,0,0-.78,1.8Z"/><path class="cls-2" d="M69.41,309.4h1.35v11.39H69.41Z"/><path class="cls-2" d="M84.82,310.1v1.35a5.37,5.37,0,0,0-1.12-.4,4.35,4.35,0,0,0-1.12-.14,2.66,2.66,0,0,0-2.24,1,5.22,5.22,0,0,0-.88,3,2.79,2.79,0,0,1,1.08-1,3,3,0,0,1,1.43-.34,3.44,3.44,0,0,1,2.61,1,4.27,4.27,0,0,1,0,5.42,3.55,3.55,0,0,1-2.65,1,3.3,3.3,0,0,1-2.9-1.46,7.37,7.37,0,0,1-1-4.21,6.46,6.46,0,0,1,1.23-4.14,4,4,0,0,1,3.31-1.54,6.16,6.16,0,0,1,1.12.11A10.07,10.07,0,0,1,84.82,310.1Zm-2.93,4.64a2,2,0,0,0-1.58.68,3.29,3.29,0,0,0,0,3.73,2,2,0,0,0,1.58.69,1.94,1.94,0,0,0,1.57-.69,3.24,3.24,0,0,0,0-3.73A1.93,1.93,0,0,0,81.89,314.74Z"/></svg>