<?xml version="1.0" encoding="UTF-8" standalone="no"?>
<svg xmlns:dc="http://purl.org/dc/elements/1.1/" xmlns:cc="http://creativecommons.org/ns#" xmlns:rdf="http://www.w3.org/1999/02/22-rdf-syntax-ns#" xmlns:svg="http://www.w3.org/2000/svg" xmlns="http://www.w3.org/2000/svg" height="1000" width="1000" id="svg56" version="1.1" viewBox="0 0 1000 1000">
  <metadata id="metadata62">
    <rdf:RDF>
      <cc:Work rdf:about="">
        <dc:format>image/svg+xml</dc:format>
        <dc:type rdf:resource="http://purl.org/dc/dcmitype/StillImage"/>
        <dc:title>sequence</dc:title>
      </cc:Work>
    </rdf:RDF>
  </metadata>
  <defs id="defs60">
    <marker style="overflow:visible" id="TriangleOutM" refX="0.0" refY="0.0" orient="auto">
      <path transform="scale(0.4)" style="fill-rule:evenodd;stroke:#004775;stroke-width:1pt;stroke-opacity:1;fill:#004775;fill-opacity:1" d="M 5.77,0.0 L -2.88,5.0 L -2.88,-5.0 L 5.77,0.0 z " id="path4941"/>
    </marker>
    <marker style="overflow:visible" id="TriangleOutL" refX="0.0" refY="0.0" orient="auto">
      <path transform="scale(0.8)" style="fill-rule:evenodd;stroke:#004775;stroke-width:1pt;stroke-opacity:1;fill:#004775;fill-opacity:1" d="M 5.77,0.0 L -2.88,5.0 L -2.88,-5.0 L 5.77,0.0 z " id="path4938"/>
    </marker>
  </defs>
  <title id="title2">sequence</title>
  <path id="circle24" d="M 805.04147,500 A 305.04147,305.04147 0 0 1 500,805.04147 305.04147,305.04147 0 0 1 194.95853,500 305.04147,305.04147 0 0 1 500,194.95853 305.04147,305.04147 0 0 1 805.04147,500 Z" style="fill:none;stroke:#004775;stroke-width:7;stroke-miterlimit:10;stroke-dasharray:none"/>
  <path id="path4640" d="M 500,47.5382 V 952.4618" style="fill:none;stroke:#00ff00;stroke-width:3.5;stroke-linecap:butt;stroke-linejoin:miter;stroke-miterlimit:4;stroke-dasharray:none;stroke-opacity:1"/>
  <path id="path4640-9" d="M 971.99305,500 H 28.00695" style="fill:none;stroke:#00ff00;stroke-width:3.575;stroke-linecap:butt;stroke-linejoin:miter;stroke-miterlimit:4;stroke-dasharray:none;stroke-opacity:1"/>
  <g id="text4665" style="font-style:normal;font-weight:normal;font-size:40px;line-height:1.25;font-family:sans-serif;letter-spacing:0px;word-spacing:0px;fill:#000000;fill-opacity:1;stroke:none" aria-label="(1, 0)">
    <path id="path6050" style="font-style:normal;font-variant:normal;font-weight:normal;font-stretch:normal;font-family:'DejaVu Sans';-inkscape-font-specification:'DejaVu Sans'" d="m 840.46136,445.28323 q -2.61718,4.49219 -3.88671,8.88672 -1.26954,4.39453 -1.26954,8.90625 0,4.51172 1.26954,8.94531 1.28906,4.41407 3.88671,8.88672 h -3.125 q -2.92968,-4.58984 -4.39453,-9.02343 -1.44531,-4.4336 -1.44531,-8.8086 0,-4.35547 1.44531,-8.76953 1.44532,-4.41406 4.39453,-9.02344 z"/>
    <path id="path6052" style="font-style:normal;font-variant:normal;font-weight:normal;font-stretch:normal;font-family:'DejaVu Sans';-inkscape-font-specification:'DejaVu Sans'" d="m 848.64496,472.31448 h 6.44531 v -22.24609 l -7.01172,1.40625 v -3.59375 l 6.97266,-1.40625 h 3.94531 v 25.83984 h 6.44531 v 3.32032 h -16.79687 z"/>
    <path id="path6054" style="font-style:normal;font-variant:normal;font-weight:normal;font-stretch:normal;font-family:'DejaVu Sans';-inkscape-font-specification:'DejaVu Sans'" d="m 873.84027,470.67386 h 4.12109 v 3.35937 l -3.20312,6.25 h -2.51953 l 1.60156,-6.25 z"/>
    <path id="path6056" style="font-style:normal;font-variant:normal;font-weight:normal;font-stretch:normal;font-family:'DejaVu Sans';-inkscape-font-specification:'DejaVu Sans'" d="m 907.33636,449.0723 q -3.04687,0 -4.58984,3.00781 -1.52344,2.98828 -1.52344,9.0039 0,5.9961 1.52344,9.00391 1.54297,2.98828 4.58984,2.98828 3.06641,0 4.58985,-2.98828 1.54297,-3.00781 1.54297,-9.00391 0,-6.01562 -1.54297,-9.0039 -1.52344,-3.00781 -4.58985,-3.00781 z m 0,-3.125 q 4.90235,0 7.48047,3.88671 2.59766,3.86719 2.59766,11.25 0,7.36329 -2.59766,11.25 -2.57812,3.86719 -7.48047,3.86719 -4.90234,0 -7.5,-3.86719 -2.57812,-3.88671 -2.57812,-11.25 0,-7.38281 2.57812,-11.25 2.59766,-3.88671 7.5,-3.88671 z"/>
    <path id="path6058" style="font-style:normal;font-variant:normal;font-weight:normal;font-stretch:normal;font-family:'DejaVu Sans';-inkscape-font-specification:'DejaVu Sans'" d="m 923.2934,445.28323 h 3.125 q 2.92968,4.60938 4.375,9.02344 1.46484,4.41406 1.46484,8.76953 0,4.375 -1.46484,8.8086 -1.44532,4.43359 -4.375,9.02343 h -3.125 q 2.59765,-4.47265 3.86718,-8.88672 1.28907,-4.43359 1.28907,-8.94531 0,-4.51172 -1.28907,-8.90625 -1.26953,-4.39453 -3.86718,-8.88672 z"/>
  </g>
  <g id="text4665-4" style="font-style:normal;font-weight:normal;font-size:40px;line-height:1.25;font-family:sans-serif;letter-spacing:0px;word-spacing:0px;fill:#000000;fill-opacity:1;stroke:none" aria-label="(0, 1)">
    <path id="path6039" style="font-style:normal;font-variant:normal;font-weight:normal;font-stretch:normal;font-family:'DejaVu Sans';-inkscape-font-specification:'DejaVu Sans'" d="m 524.20898,130 q -2.61718,4.49219 -3.88671,8.88672 -1.26954,4.39453 -1.26954,8.90625 0,4.51172 1.26954,8.94531 1.28906,4.41406 3.88671,8.88672 h -3.125 q -2.92968,-4.58984 -4.39453,-9.02344 -1.44531,-4.43359 -1.44531,-8.80859 0,-4.35547 1.44531,-8.76953 1.44532,-4.41407 4.39453,-9.02344 z"/>
    <path id="path6041" style="font-style:normal;font-variant:normal;font-weight:normal;font-stretch:normal;font-family:'DejaVu Sans';-inkscape-font-specification:'DejaVu Sans'" d="m 540.14648,133.78906 q -3.04687,0 -4.58984,3.00781 -1.52344,2.98829 -1.52344,9.00391 0,5.99609 1.52344,9.00391 1.54297,2.98828 4.58984,2.98828 3.06641,0 4.58985,-2.98828 1.54297,-3.00782 1.54297,-9.00391 0,-6.01562 -1.54297,-9.00391 -1.52344,-3.00781 -4.58985,-3.00781 z m 0,-3.125 q 4.90235,0 7.48047,3.88672 2.59766,3.86719 2.59766,11.25 0,7.36328 -2.59766,11.25 -2.57812,3.86719 -7.48047,3.86719 -4.90234,0 -7.5,-3.86719 -2.57812,-3.88672 -2.57812,-11.25 0,-7.38281 2.57812,-11.25 2.59766,-3.88672 7.5,-3.88672 z"/>
    <path id="path6043" style="font-style:normal;font-variant:normal;font-weight:normal;font-stretch:normal;font-family:'DejaVu Sans';-inkscape-font-specification:'DejaVu Sans'" d="m 557.58789,155.39062 h 4.12109 V 158.75 l -3.20312,6.25 h -2.51953 l 1.60156,-6.25 z"/>
    <path id="path6045" style="font-style:normal;font-variant:normal;font-weight:normal;font-stretch:normal;font-family:'DejaVu Sans';-inkscape-font-specification:'DejaVu Sans'" d="m 583.33008,157.03125 h 6.44531 v -22.24609 l -7.01172,1.40625 v -3.59375 l 6.97266,-1.40625 h 3.94531 v 25.83984 h 6.44531 v 3.32031 h -16.79687 z"/>
    <path id="path6047" style="font-style:normal;font-variant:normal;font-weight:normal;font-stretch:normal;font-family:'DejaVu Sans';-inkscape-font-specification:'DejaVu Sans'" d="m 607.04102,130 h 3.125 q 2.92968,4.60937 4.375,9.02344 1.46484,4.41406 1.46484,8.76953 0,4.375 -1.46484,8.80859 -1.44532,4.4336 -4.375,9.02344 h -3.125 q 2.59765,-4.47266 3.86718,-8.88672 1.28907,-4.43359 1.28907,-8.94531 0,-4.51172 -1.28907,-8.90625 -1.26953,-4.39453 -3.86718,-8.88672 z"/>
  </g>
  <g id="text4665-4-7" style="font-style:normal;font-weight:normal;font-size:40px;line-height:1.25;font-family:sans-serif;letter-spacing:0px;word-spacing:0px;fill:#000000;fill-opacity:1;stroke:none" aria-label="(0, -1)">
    <path id="path6026" style="font-style:normal;font-variant:normal;font-weight:normal;font-stretch:normal;font-family:'DejaVu Sans';-inkscape-font-specification:'DejaVu Sans'" d="m 524.20898,830 q -2.61718,4.49219 -3.88671,8.88672 -1.26954,4.39453 -1.26954,8.90625 0,4.51172 1.26954,8.94531 1.28906,4.41406 3.88671,8.88672 h -3.125 q -2.92968,-4.58984 -4.39453,-9.02344 -1.44531,-4.43359 -1.44531,-8.80859 0,-4.35547 1.44531,-8.76953 1.44532,-4.41407 4.39453,-9.02344 z"/>
    <path id="path6028" style="font-style:normal;font-variant:normal;font-weight:normal;font-stretch:normal;font-family:'DejaVu Sans';-inkscape-font-specification:'DejaVu Sans'" d="m 540.14648,833.78906 q -3.04687,0 -4.58984,3.00781 -1.52344,2.98829 -1.52344,9.00391 0,5.99609 1.52344,9.00391 1.54297,2.98828 4.58984,2.98828 3.06641,0 4.58985,-2.98828 1.54297,-3.00782 1.54297,-9.00391 0,-6.01562 -1.54297,-9.00391 -1.52344,-3.00781 -4.58985,-3.00781 z m 0,-3.125 q 4.90235,0 7.48047,3.88672 2.59766,3.86719 2.59766,11.25 0,7.36328 -2.59766,11.25 -2.57812,3.86719 -7.48047,3.86719 -4.90234,0 -7.5,-3.86719 -2.57812,-3.88672 -2.57812,-11.25 0,-7.38281 2.57812,-11.25 2.59766,-3.88672 7.5,-3.88672 z"/>
    <path id="path6030" style="font-style:normal;font-variant:normal;font-weight:normal;font-stretch:normal;font-family:'DejaVu Sans';-inkscape-font-specification:'DejaVu Sans'" d="m 557.58789,855.39062 h 4.12109 V 858.75 l -3.20312,6.25 h -2.51953 l 1.60156,-6.25 z"/>
    <path id="path6032" style="font-style:normal;font-variant:normal;font-weight:normal;font-stretch:normal;font-family:'DejaVu Sans';-inkscape-font-specification:'DejaVu Sans'" d="m 580.32227,847.79297 h 10.52734 v 3.20312 h -10.52734 z"/>
    <path id="path6034" style="font-style:normal;font-variant:normal;font-weight:normal;font-stretch:normal;font-family:'DejaVu Sans';-inkscape-font-specification:'DejaVu Sans'" d="m 597.7832,857.03125 h 6.44532 v -22.24609 l -7.01172,1.40625 v -3.59375 l 6.97265,-1.40625 h 3.94532 v 25.83984 h 6.44531 v 3.32031 H 597.7832 Z"/>
    <path id="path6036" style="font-style:normal;font-variant:normal;font-weight:normal;font-stretch:normal;font-family:'DejaVu Sans';-inkscape-font-specification:'DejaVu Sans'" d="m 621.49414,830 h 3.125 q 2.92969,4.60937 4.375,9.02344 1.46484,4.41406 1.46484,8.76953 0,4.375 -1.46484,8.80859 -1.44531,4.4336 -4.375,9.02344 h -3.125 q 2.59766,-4.47266 3.86719,-8.88672 1.28906,-4.43359 1.28906,-8.94531 0,-4.51172 -1.28906,-8.90625 Q 624.0918,834.49219 621.49414,830 Z"/>
  </g>
  <g id="text4665-2" style="font-style:normal;font-weight:normal;font-size:40px;line-height:1.25;font-family:sans-serif;letter-spacing:0px;word-spacing:0px;fill:#000000;fill-opacity:1;stroke:none" aria-label="(-1, 0)">
    <path id="path6013" style="font-style:normal;font-variant:normal;font-weight:normal;font-stretch:normal;font-family:'DejaVu Sans';-inkscape-font-specification:'DejaVu Sans'" d="m 60.461365,445.28323 q -2.617188,4.49219 -3.886719,8.88672 -1.269531,4.39453 -1.269531,8.90625 0,4.51172 1.269531,8.94531 1.289062,4.41407 3.886719,8.88672 h -3.125 q -2.929688,-4.58984 -4.394532,-9.02343 -1.445312,-4.4336 -1.445312,-8.8086 0,-4.35547 1.445312,-8.76953 1.445313,-4.41406 4.394532,-9.02344 z"/>
    <path id="path6015" style="font-style:normal;font-variant:normal;font-weight:normal;font-stretch:normal;font-family:'DejaVu Sans';-inkscape-font-specification:'DejaVu Sans'" d="M 65.637146,463.0762 H 76.16449 v 3.20313 H 65.637146 Z"/>
    <path id="path6017" style="font-style:normal;font-variant:normal;font-weight:normal;font-stretch:normal;font-family:'DejaVu Sans';-inkscape-font-specification:'DejaVu Sans'" d="m 83.098083,472.31448 h 6.445313 v -22.24609 l -7.011719,1.40625 v -3.59375 l 6.972656,-1.40625 h 3.945313 v 25.83984 h 6.445312 v 3.32032 H 83.098083 Z"/>
    <path id="path6019" style="font-style:normal;font-variant:normal;font-weight:normal;font-stretch:normal;font-family:'DejaVu Sans';-inkscape-font-specification:'DejaVu Sans'" d="m 108.2934,470.67386 h 4.12109 v 3.35937 l -3.20313,6.25 h -2.51953 l 1.60157,-6.25 z"/>
    <path id="path6021" style="font-style:normal;font-variant:normal;font-weight:normal;font-stretch:normal;font-family:'DejaVu Sans';-inkscape-font-specification:'DejaVu Sans'" d="m 141.78949,449.0723 q -3.04688,0 -4.58984,3.00781 -1.52344,2.98828 -1.52344,9.0039 0,5.9961 1.52344,9.00391 1.54296,2.98828 4.58984,2.98828 3.06641,0 4.58984,-2.98828 1.54297,-3.00781 1.54297,-9.00391 0,-6.01562 -1.54297,-9.0039 -1.52343,-3.00781 -4.58984,-3.00781 z m 0,-3.125 q 4.90234,0 7.48047,3.88671 2.59765,3.86719 2.59765,11.25 0,7.36329 -2.59765,11.25 -2.57813,3.86719 -7.48047,3.86719 -4.90234,0 -7.5,-3.86719 -2.57813,-3.88671 -2.57813,-11.25 0,-7.38281 2.57813,-11.25 2.59766,-3.88671 7.5,-3.88671 z"/>
    <path id="path6023" style="font-style:normal;font-variant:normal;font-weight:normal;font-stretch:normal;font-family:'DejaVu Sans';-inkscape-font-specification:'DejaVu Sans'" d="m 157.74652,445.28323 h 3.125 q 2.92969,4.60938 4.375,9.02344 1.46484,4.41406 1.46484,8.76953 0,4.375 -1.46484,8.8086 -1.44531,4.43359 -4.375,9.02343 h -3.125 q 2.59766,-4.47265 3.86719,-8.88672 1.28906,-4.43359 1.28906,-8.94531 0,-4.51172 -1.28906,-8.90625 -1.26953,-4.39453 -3.86719,-8.88672 z"/>
  </g>
  <g id="text4665-4-6" style="font-style:normal;font-weight:normal;font-size:40px;line-height:1.25;font-family:sans-serif;letter-spacing:0px;word-spacing:0px;fill:#004775;fill-opacity:1;stroke:none" aria-label="y">
    <path id="path6010" style="font-style:oblique;font-variant:normal;font-weight:normal;font-stretch:normal;font-family:'DejaVu Sans';-inkscape-font-specification:'DejaVu Sans Oblique';fill:#004775;fill-opacity:1" d="m 471.10352,73.257812 q -2.5,4.199219 -4.08204,5.234375 -1.5625,1.054688 -4.0039,1.054688 h -2.83203 l 0.60547,-3.007813 h 2.07031 q 1.5039,0 2.55859,-0.820312 1.05469,-0.820313 2.36328,-3.203125 l 1.11328,-2.089844 -4.84375,-21.074219 h 3.8086 l 3.63281,16.757813 10.03906,-16.757813 h 3.76953 z"/>
  </g>
  <g transform="translate(-920,4)" id="text4665-4-6-4" style="font-style:normal;font-weight:normal;font-size:40px;line-height:1.25;font-family:sans-serif;letter-spacing:0px;word-spacing:0px;fill:#004775;fill-opacity:1;stroke:none" aria-label="x">
    <path id="path6007" style="font-style:oblique;font-variant:normal;font-weight:normal;font-stretch:normal;font-family:'DejaVu Sans';-inkscape-font-specification:'DejaVu Sans Oblique';fill:#004775;fill-opacity:1" d="m 970.79297,513.02734 -10.03906,10.72266 6.15234,11.15234 h -4.12109 l -4.62891,-8.67187 -8.04688,8.67187 h -4.35546 l 10.76171,-11.52343 -5.72265,-10.35157 h 4.12109 l 4.19922,7.91016 7.32422,-7.91016 z"/>
  </g>
  <g id="text4665-4-71" style="font-style:normal;font-weight:normal;font-size:40px;line-height:1.25;font-family:sans-serif;letter-spacing:0px;word-spacing:0px;fill:#000000;fill-opacity:1;stroke:none" aria-label="1">
    <path id="path6004" style="font-style:normal;font-variant:normal;font-weight:normal;font-stretch:normal;font-family:'DejaVu Sans';-inkscape-font-specification:'DejaVu Sans'" d="m 580.39307,373.45178 h 6.44531 v -22.24609 l -7.01172,1.40625 v -3.59375 l 6.97266,-1.40625 h 3.94531 v 25.83984 h 6.44531 v 3.32031 h -16.79687 z"/>
  </g>
  <g id="text4665-48" style="font-style:normal;font-weight:normal;font-size:40px;line-height:1.25;font-family:sans-serif;letter-spacing:0px;word-spacing:0px;fill:#00ff00;fill-opacity:1;stroke:none" aria-label="(1, 0)">
    <path id="path5993" style="font-style:normal;font-variant:normal;font-weight:normal;font-stretch:normal;font-family:'DejaVu Sans';-inkscape-font-specification:'DejaVu Sans';fill:#00ff00" d="m 838.46136,443.28323 q -2.61718,4.49219 -3.88671,8.88672 -1.26954,4.39453 -1.26954,8.90625 0,4.51172 1.26954,8.94531 1.28906,4.41407 3.88671,8.88672 h -3.125 q -2.92968,-4.58984 -4.39453,-9.02343 -1.44531,-4.4336 -1.44531,-8.8086 0,-4.35547 1.44531,-8.76953 1.44532,-4.41406 4.39453,-9.02344 z"/>
    <path id="path5995" style="font-style:normal;font-variant:normal;font-weight:normal;font-stretch:normal;font-family:'DejaVu Sans';-inkscape-font-specification:'DejaVu Sans';fill:#00ff00" d="m 846.64496,470.31448 h 6.44531 v -22.24609 l -7.01172,1.40625 v -3.59375 l 6.97266,-1.40625 h 3.94531 v 25.83984 h 6.44531 v 3.32032 h -16.79687 z"/>
    <path id="path5997" style="font-style:normal;font-variant:normal;font-weight:normal;font-stretch:normal;font-family:'DejaVu Sans';-inkscape-font-specification:'DejaVu Sans';fill:#00ff00" d="m 871.84027,468.67386 h 4.12109 v 3.35937 l -3.20312,6.25 h -2.51953 l 1.60156,-6.25 z"/>
    <path id="path5999" style="font-style:normal;font-variant:normal;font-weight:normal;font-stretch:normal;font-family:'DejaVu Sans';-inkscape-font-specification:'DejaVu Sans';fill:#00ff00" d="m 905.33636,447.0723 q -3.04687,0 -4.58984,3.00781 -1.52344,2.98828 -1.52344,9.0039 0,5.9961 1.52344,9.00391 1.54297,2.98828 4.58984,2.98828 3.06641,0 4.58985,-2.98828 1.54297,-3.00781 1.54297,-9.00391 0,-6.01562 -1.54297,-9.0039 -1.52344,-3.00781 -4.58985,-3.00781 z m 0,-3.125 q 4.90235,0 7.48047,3.88671 2.59766,3.86719 2.59766,11.25 0,7.36329 -2.59766,11.25 -2.57812,3.86719 -7.48047,3.86719 -4.90234,0 -7.5,-3.86719 -2.57812,-3.88671 -2.57812,-11.25 0,-7.38281 2.57812,-11.25 2.59766,-3.88671 7.5,-3.88671 z"/>
    <path id="path6001" style="font-style:normal;font-variant:normal;font-weight:normal;font-stretch:normal;font-family:'DejaVu Sans';-inkscape-font-specification:'DejaVu Sans';fill:#00ff00" d="m 921.2934,443.28323 h 3.125 q 2.92968,4.60938 4.375,9.02344 1.46484,4.41406 1.46484,8.76953 0,4.375 -1.46484,8.8086 -1.44532,4.43359 -4.375,9.02343 h -3.125 q 2.59765,-4.47265 3.86718,-8.88672 1.28907,-4.43359 1.28907,-8.94531 0,-4.51172 -1.28907,-8.90625 -1.26953,-4.39453 -3.86718,-8.88672 z"/>
  </g>
  <g id="text4665-4-5" style="font-style:normal;font-weight:normal;font-size:40px;line-height:1.25;font-family:sans-serif;letter-spacing:0px;word-spacing:0px;fill:#00ff00;fill-opacity:1;stroke:none" aria-label="(0, 1)">
    <path id="path5982" style="font-style:normal;font-variant:normal;font-weight:normal;font-stretch:normal;font-family:'DejaVu Sans';-inkscape-font-specification:'DejaVu Sans';fill:#00ff00" d="m 522.20898,128 q -2.61718,4.49219 -3.88671,8.88672 -1.26954,4.39453 -1.26954,8.90625 0,4.51172 1.26954,8.94531 1.28906,4.41406 3.88671,8.88672 h -3.125 q -2.92968,-4.58984 -4.39453,-9.02344 -1.44531,-4.43359 -1.44531,-8.80859 0,-4.35547 1.44531,-8.76953 1.44532,-4.41407 4.39453,-9.02344 z"/>
    <path id="path5984" style="font-style:normal;font-variant:normal;font-weight:normal;font-stretch:normal;font-family:'DejaVu Sans';-inkscape-font-specification:'DejaVu Sans';fill:#00ff00" d="m 538.14648,131.78906 q -3.04687,0 -4.58984,3.00781 -1.52344,2.98829 -1.52344,9.00391 0,5.99609 1.52344,9.00391 1.54297,2.98828 4.58984,2.98828 3.06641,0 4.58985,-2.98828 1.54297,-3.00782 1.54297,-9.00391 0,-6.01562 -1.54297,-9.00391 -1.52344,-3.00781 -4.58985,-3.00781 z m 0,-3.125 q 4.90235,0 7.48047,3.88672 2.59766,3.86719 2.59766,11.25 0,7.36328 -2.59766,11.25 -2.57812,3.86719 -7.48047,3.86719 -4.90234,0 -7.5,-3.86719 -2.57812,-3.88672 -2.57812,-11.25 0,-7.38281 2.57812,-11.25 2.59766,-3.88672 7.5,-3.88672 z"/>
    <path id="path5986" style="font-style:normal;font-variant:normal;font-weight:normal;font-stretch:normal;font-family:'DejaVu Sans';-inkscape-font-specification:'DejaVu Sans';fill:#00ff00" d="m 555.58789,153.39062 h 4.12109 V 156.75 l -3.20312,6.25 h -2.51953 l 1.60156,-6.25 z"/>
    <path id="path5988" style="font-style:normal;font-variant:normal;font-weight:normal;font-stretch:normal;font-family:'DejaVu Sans';-inkscape-font-specification:'DejaVu Sans';fill:#00ff00" d="m 581.33008,155.03125 h 6.44531 v -22.24609 l -7.01172,1.40625 v -3.59375 l 6.97266,-1.40625 h 3.94531 v 25.83984 h 6.44531 v 3.32031 h -16.79687 z"/>
    <path id="path5990" style="font-style:normal;font-variant:normal;font-weight:normal;font-stretch:normal;font-family:'DejaVu Sans';-inkscape-font-specification:'DejaVu Sans';fill:#00ff00" d="m 605.04102,128 h 3.125 q 2.92968,4.60937 4.375,9.02344 1.46484,4.41406 1.46484,8.76953 0,4.375 -1.46484,8.80859 -1.44532,4.4336 -4.375,9.02344 h -3.125 q 2.59765,-4.47266 3.86718,-8.88672 1.28907,-4.43359 1.28907,-8.94531 0,-4.51172 -1.28907,-8.90625 -1.26953,-4.39453 -3.86718,-8.88672 z"/>
  </g>
  <g id="text4665-4-7-6" style="font-style:normal;font-weight:normal;font-size:40px;line-height:1.25;font-family:sans-serif;letter-spacing:0px;word-spacing:0px;fill:#00ff00;fill-opacity:1;stroke:none" aria-label="(0, -1)">
    <path id="path5969" style="font-style:normal;font-variant:normal;font-weight:normal;font-stretch:normal;font-family:'DejaVu Sans';-inkscape-font-specification:'DejaVu Sans';fill:#00ff00" d="m 522.20898,828 q -2.61718,4.49219 -3.88671,8.88672 -1.26954,4.39453 -1.26954,8.90625 0,4.51172 1.26954,8.94531 1.28906,4.41406 3.88671,8.88672 h -3.125 q -2.92968,-4.58984 -4.39453,-9.02344 -1.44531,-4.43359 -1.44531,-8.80859 0,-4.35547 1.44531,-8.76953 1.44532,-4.41407 4.39453,-9.02344 z"/>
    <path id="path5971" style="font-style:normal;font-variant:normal;font-weight:normal;font-stretch:normal;font-family:'DejaVu Sans';-inkscape-font-specification:'DejaVu Sans';fill:#00ff00" d="m 538.14648,831.78906 q -3.04687,0 -4.58984,3.00781 -1.52344,2.98829 -1.52344,9.00391 0,5.99609 1.52344,9.00391 1.54297,2.98828 4.58984,2.98828 3.06641,0 4.58985,-2.98828 1.54297,-3.00782 1.54297,-9.00391 0,-6.01562 -1.54297,-9.00391 -1.52344,-3.00781 -4.58985,-3.00781 z m 0,-3.125 q 4.90235,0 7.48047,3.88672 2.59766,3.86719 2.59766,11.25 0,7.36328 -2.59766,11.25 -2.57812,3.86719 -7.48047,3.86719 -4.90234,0 -7.5,-3.86719 -2.57812,-3.88672 -2.57812,-11.25 0,-7.38281 2.57812,-11.25 2.59766,-3.88672 7.5,-3.88672 z"/>
    <path id="path5973" style="font-style:normal;font-variant:normal;font-weight:normal;font-stretch:normal;font-family:'DejaVu Sans';-inkscape-font-specification:'DejaVu Sans';fill:#00ff00" d="m 555.58789,853.39062 h 4.12109 V 856.75 l -3.20312,6.25 h -2.51953 l 1.60156,-6.25 z"/>
    <path id="path5975" style="font-style:normal;font-variant:normal;font-weight:normal;font-stretch:normal;font-family:'DejaVu Sans';-inkscape-font-specification:'DejaVu Sans';fill:#00ff00" d="m 578.32227,845.79297 h 10.52734 v 3.20312 h -10.52734 z"/>
    <path id="path5977" style="font-style:normal;font-variant:normal;font-weight:normal;font-stretch:normal;font-family:'DejaVu Sans';-inkscape-font-specification:'DejaVu Sans';fill:#00ff00" d="m 595.7832,855.03125 h 6.44532 v -22.24609 l -7.01172,1.40625 v -3.59375 l 6.97265,-1.40625 h 3.94532 v 25.83984 h 6.44531 v 3.32031 H 595.7832 Z"/>
    <path id="path5979" style="font-style:normal;font-variant:normal;font-weight:normal;font-stretch:normal;font-family:'DejaVu Sans';-inkscape-font-specification:'DejaVu Sans';fill:#00ff00" d="m 619.49414,828 h 3.125 q 2.92969,4.60937 4.375,9.02344 1.46484,4.41406 1.46484,8.76953 0,4.375 -1.46484,8.80859 -1.44531,4.4336 -4.375,9.02344 h -3.125 q 2.59766,-4.47266 3.86719,-8.88672 1.28906,-4.43359 1.28906,-8.94531 0,-4.51172 -1.28906,-8.90625 Q 622.0918,832.49219 619.49414,828 Z"/>
  </g>
  <g id="text4665-2-3" style="font-style:normal;font-weight:normal;font-size:40px;line-height:1.25;font-family:sans-serif;letter-spacing:0px;word-spacing:0px;fill:#00ff00;fill-opacity:1;stroke:none" aria-label="(-1, 0)">
    <path id="path5956" style="font-style:normal;font-variant:normal;font-weight:normal;font-stretch:normal;font-family:'DejaVu Sans';-inkscape-font-specification:'DejaVu Sans';fill:#00ff00" d="m 58.461365,443.28323 q -2.617188,4.49219 -3.886719,8.88672 -1.269531,4.39453 -1.269531,8.90625 0,4.51172 1.269531,8.94531 1.289062,4.41407 3.886719,8.88672 h -3.125 q -2.929688,-4.58984 -4.394532,-9.02343 -1.445312,-4.4336 -1.445312,-8.8086 0,-4.35547 1.445312,-8.76953 1.445313,-4.41406 4.394532,-9.02344 z"/>
    <path id="path5958" style="font-style:normal;font-variant:normal;font-weight:normal;font-stretch:normal;font-family:'DejaVu Sans';-inkscape-font-specification:'DejaVu Sans';fill:#00ff00" d="M 63.637146,461.0762 H 74.16449 v 3.20313 H 63.637146 Z"/>
    <path id="path5960" style="font-style:normal;font-variant:normal;font-weight:normal;font-stretch:normal;font-family:'DejaVu Sans';-inkscape-font-specification:'DejaVu Sans';fill:#00ff00" d="m 81.098083,470.31448 h 6.445313 v -22.24609 l -7.011719,1.40625 v -3.59375 l 6.972656,-1.40625 h 3.945313 v 25.83984 h 6.445312 v 3.32032 H 81.098083 Z"/>
    <path id="path5962" style="font-style:normal;font-variant:normal;font-weight:normal;font-stretch:normal;font-family:'DejaVu Sans';-inkscape-font-specification:'DejaVu Sans';fill:#00ff00" d="m 106.2934,468.67386 h 4.12109 v 3.35937 l -3.20313,6.25 h -2.51953 l 1.60157,-6.25 z"/>
    <path id="path5964" style="font-style:normal;font-variant:normal;font-weight:normal;font-stretch:normal;font-family:'DejaVu Sans';-inkscape-font-specification:'DejaVu Sans';fill:#00ff00" d="m 139.78949,447.0723 q -3.04688,0 -4.58984,3.00781 -1.52344,2.98828 -1.52344,9.0039 0,5.9961 1.52344,9.00391 1.54296,2.98828 4.58984,2.98828 3.06641,0 4.58984,-2.98828 1.54297,-3.00781 1.54297,-9.00391 0,-6.01562 -1.54297,-9.0039 -1.52343,-3.00781 -4.58984,-3.00781 z m 0,-3.125 q 4.90234,0 7.48047,3.88671 2.59765,3.86719 2.59765,11.25 0,7.36329 -2.59765,11.25 -2.57813,3.86719 -7.48047,3.86719 -4.90234,0 -7.5,-3.86719 -2.57813,-3.88671 -2.57813,-11.25 0,-7.38281 2.57813,-11.25 2.59766,-3.88671 7.5,-3.88671 z"/>
    <path id="path5966" style="font-style:normal;font-variant:normal;font-weight:normal;font-stretch:normal;font-family:'DejaVu Sans';-inkscape-font-specification:'DejaVu Sans';fill:#00ff00" d="m 155.74652,443.28323 h 3.125 q 2.92969,4.60938 4.375,9.02344 1.46484,4.41406 1.46484,8.76953 0,4.375 -1.46484,8.8086 -1.44531,4.43359 -4.375,9.02343 h -3.125 q 2.59766,-4.47265 3.86719,-8.88672 1.28906,-4.43359 1.28906,-8.94531 0,-4.51172 -1.28906,-8.90625 -1.26953,-4.39453 -3.86719,-8.88672 z"/>
  </g>
  <g id="text4665-4-71-0" style="font-style:normal;font-weight:normal;font-size:40px;line-height:1.25;font-family:sans-serif;letter-spacing:0px;word-spacing:0px;fill:#00ff00;fill-opacity:1;stroke:none" aria-label="1">
    <path id="path5953" style="font-style:normal;font-variant:normal;font-weight:normal;font-stretch:normal;font-family:'DejaVu Sans';-inkscape-font-specification:'DejaVu Sans';fill:#00ff00" d="m 578.39307,371.45178 h 6.44531 v -22.24609 l -7.01172,1.40625 v -3.59375 l 6.97266,-1.40625 h 3.94531 v 25.83984 h 6.44531 v 3.32031 h -16.79687 z"/>
  </g>
  <path id="path4794" d="M 500.96185,499.04628 699.52171,300.48642" style="fill:#004775;fill-opacity:1;stroke:#004775;stroke-width:7;stroke-linecap:butt;stroke-linejoin:miter;stroke-miterlimit:4;stroke-dasharray:14,14;stroke-dashoffset:0;stroke-opacity:1;marker-end:url(#TriangleOutM)"/>
  <g id="text4665-4-6-4-8" style="font-style:normal;font-weight:normal;font-size:40px;line-height:1.25;font-family:sans-serif;letter-spacing:0px;word-spacing:0px;fill:#004775;fill-opacity:1;stroke:none" aria-label="θ">
    <path id="path5950" style="font-style:oblique;font-variant:normal;font-weight:normal;font-stretch:normal;font-family:'DejaVu Sans';-inkscape-font-specification:'DejaVu Sans Oblique';fill:#004775;fill-opacity:1" d="m 574.15625,473.28906 h -12.42188 q -0.83984,5.83985 0.0195,8.32031 1.07421,3.04688 3.98437,3.04688 2.92969,0 5.15625,-3.06641 1.95313,-2.69531 3.26172,-8.30078 z m 0.60547,-3.32031 q 0.52734,-5.54688 -0.15625,-7.5 -1.07422,-3.08594 -3.94531,-3.08594 -2.98829,0 -5.17579,3.04688 -1.71875,2.46093 -3.0664,7.53906 z m -3.53516,-13.51563 q 4.6875,0 6.5625,4.14063 1.875,4.12109 0.44922,11.42578 -1.40625,7.28516 -4.90234,11.42578 -3.47657,4.16016 -8.16407,4.16016 -4.70703,0 -6.5625,-4.16016 -1.85546,-4.14062 -0.44921,-11.42578 1.42578,-7.30469 4.88281,-11.42578 3.47656,-4.14063 8.18359,-4.14063 z"/>
  </g>
</svg>