<?xml version="1.0" encoding="UTF-8" standalone="no"?>
<svg xmlns:dc="http://purl.org/dc/elements/1.1/" xmlns:cc="http://creativecommons.org/ns#" xmlns:rdf="http://www.w3.org/1999/02/22-rdf-syntax-ns#" xmlns:svg="http://www.w3.org/2000/svg" xmlns="http://www.w3.org/2000/svg" height="960" width="1000" id="svg56" version="1.1" viewBox="0 0 1000 960">
  <metadata id="metadata62">
    <rdf:RDF>
      <cc:Work rdf:about="">
        <dc:format>image/svg+xml</dc:format>
        <dc:type rdf:resource="http://purl.org/dc/dcmitype/StillImage"/>
        <dc:title>sequence</dc:title>
      </cc:Work>
    </rdf:RDF>
  </metadata>
  <defs id="defs60">
    <marker style="overflow:visible" id="TriangleOutM" refX="0" refY="0" orient="auto">
      <path transform="scale(0.4)" style="fill:#004775;fill-opacity:1;fill-rule:evenodd;stroke:#004775;stroke-width:1.00000003pt;stroke-opacity:1" d="M 5.77,0 -2.88,5 V -5 Z" id="path4941"/>
    </marker>
    <marker style="overflow:visible" id="TriangleOutL" refX="0" refY="0" orient="auto">
      <path transform="scale(0.8)" style="fill:#004775;fill-opacity:1;fill-rule:evenodd;stroke:#004775;stroke-width:1.00000003pt;stroke-opacity:1" d="M 5.77,0 -2.88,5 V -5 Z" id="path4938"/>
    </marker>
    <marker style="overflow:visible" id="TriangleOutM-7" refX="0" refY="0" orient="auto">
      <path transform="scale(0.4)" style="fill:#004775;fill-opacity:1;fill-rule:evenodd;stroke:#004775;stroke-width:1.00000003pt;stroke-opacity:1" d="M 5.77,0 -2.88,5 V -5 Z" id="path4941-9"/>
    </marker>
    <marker style="overflow:visible" id="TriangleOutM-7-7" refX="0" refY="0" orient="auto">
      <path transform="scale(0.4)" style="fill:#004775;fill-opacity:1;fill-rule:evenodd;stroke:#004775;stroke-width:1.00000003pt;stroke-opacity:1" d="M 5.77,0 -2.88,5 V -5 Z" id="path4941-9-0"/>
    </marker>
    <marker style="overflow:visible" id="TriangleOutM-7-7-1" refX="0" refY="0" orient="auto">
      <path transform="scale(0.4)" style="fill:#004775;fill-opacity:1;fill-rule:evenodd;stroke:#004775;stroke-width:1.00000003pt;stroke-opacity:1" d="M 5.77,0 -2.88,5 V -5 Z" id="path4941-9-0-4"/>
    </marker>
    <marker style="overflow:visible" id="TriangleOutM-7-7-1-7" refX="0" refY="0" orient="auto">
      <path transform="scale(0.4)" style="fill:#004775;fill-opacity:1;fill-rule:evenodd;stroke:#004775;stroke-width:1.00000003pt;stroke-opacity:1" d="M 5.77,0 -2.88,5 V -5 Z" id="path4941-9-0-4-9"/>
    </marker>
  </defs>
  <title id="title2">sequence</title>
  <g transform="translate(8,-26)" id="text8357-7-4-3" style="font-style:normal;font-weight:normal;font-size:40px;line-height:1.25;font-family:sans-serif;letter-spacing:0px;word-spacing:0px;fill:#000000;fill-opacity:1;stroke:none" aria-label="(-1.0, -0.3)">
    <path id="path8728" d="m 436.6286,840.02441 q -2.61719,4.49219 -3.88672,8.88672 -1.26953,4.39453 -1.26953,8.90625 0,4.51172 1.26953,8.94532 1.28906,4.41406 3.88672,8.88671 h -3.125 q -2.92969,-4.58984 -4.39453,-9.02343 -1.44531,-4.4336 -1.44531,-8.8086 0,-4.35547 1.44531,-8.76953 1.44531,-4.41406 4.39453,-9.02344 z"/>
    <path id="path8730" d="m 441.80438,857.81738 h 10.52735 v 3.20313 h -10.52735 z"/>
    <path id="path8732" d="m 459.26532,867.05566 h 6.44531 v -22.24609 l -7.01172,1.40625 v -3.59375 l 6.97266,-1.40625 h 3.94531 v 25.83984 h 6.44531 v 3.32032 h -16.79687 z"/>
    <path id="path8734" d="m 484.05048,865.41504 h 4.12109 v 4.96094 h -4.12109 z"/>
    <path id="path8736" d="m 505.22235,843.81348 q -3.04687,0 -4.58984,3.00781 -1.52344,2.98828 -1.52344,9.00391 0,5.99609 1.52344,9.0039 1.54297,2.98828 4.58984,2.98828 3.06641,0 4.58984,-2.98828 1.54297,-3.00781 1.54297,-9.0039 0,-6.01563 -1.54297,-9.00391 -1.52343,-3.00781 -4.58984,-3.00781 z m 0,-3.125 q 4.90234,0 7.48047,3.88672 2.59766,3.86718 2.59766,11.25 0,7.36328 -2.59766,11.25 -2.57813,3.86718 -7.48047,3.86718 -4.90234,0 -7.5,-3.86718 -2.57812,-3.88672 -2.57812,-11.25 0,-7.38282 2.57812,-11.25 2.59766,-3.88672 7.5,-3.88672 z"/>
    <path id="path8738" d="m 522.66376,865.41504 h 4.12109 v 3.35937 l -3.20312,6.25 h -2.51954 l 1.60157,-6.25 z"/>
    <path id="path8740" d="m 545.39813,857.81738 h 10.52735 v 3.20313 h -10.52735 z"/>
    <path id="path8742" d="m 570.61298,843.81348 q -3.04688,0 -4.58985,3.00781 -1.52344,2.98828 -1.52344,9.00391 0,5.99609 1.52344,9.0039 1.54297,2.98828 4.58985,2.98828 3.0664,0 4.58984,-2.98828 1.54297,-3.00781 1.54297,-9.0039 0,-6.01563 -1.54297,-9.00391 -1.52344,-3.00781 -4.58984,-3.00781 z m 0,-3.125 q 4.90234,0 7.48046,3.88672 2.59766,3.86718 2.59766,11.25 0,7.36328 -2.59766,11.25 -2.57812,3.86718 -7.48046,3.86718 -4.90235,0 -7.5,-3.86718 -2.57813,-3.88672 -2.57813,-11.25 0,-7.38282 2.57813,-11.25 2.59765,-3.88672 7.5,-3.88672 z"/>
    <path id="path8744" d="m 587.64423,865.41504 h 4.12109 v 4.96094 h -4.12109 z"/>
    <path id="path8746" d="m 612.33173,854.65332 q 2.83203,0.60547 4.41406,2.51953 1.60156,1.91406 1.60156,4.72656 0,4.31641 -2.96875,6.67969 -2.96875,2.36328 -8.4375,2.36328 -1.83594,0 -3.78906,-0.37109 -1.9336,-0.35156 -4.00391,-1.07422 v -3.80859 q 1.64063,0.95703 3.59375,1.44531 1.95313,0.48828 4.08203,0.48828 3.71094,0 5.64453,-1.46484 1.95313,-1.46485 1.95313,-4.25782 0,-2.57812 -1.81641,-4.02343 -1.79687,-1.46485 -5.01953,-1.46485 h -3.39844 v -3.24218 h 3.55469 q 2.91016,0 4.45313,-1.15235 1.54297,-1.17187 1.54297,-3.35937 0,-2.2461 -1.60157,-3.4375 -1.58203,-1.21094 -4.55078,-1.21094 -1.62109,0 -3.47656,0.35156 -1.85547,0.35156 -4.08203,1.09375 v -3.51562 q 2.24609,-0.625 4.19922,-0.9375 1.97265,-0.3125 3.71093,-0.3125 4.49219,0 7.10938,2.05078 2.61719,2.03125 2.61719,5.50781 0,2.42188 -1.38672,4.10156 -1.38672,1.66016 -3.94531,2.30469 z"/>
    <path id="path8748" d="m 624.77313,840.02441 h 3.125 q 2.92969,4.60938 4.375,9.02344 1.46485,4.41406 1.46485,8.76953 0,4.375 -1.46485,8.8086 -1.44531,4.43359 -4.375,9.02343 h -3.125 q 2.59766,-4.47265 3.86719,-8.88671 1.28906,-4.4336 1.28906,-8.94532 0,-4.51172 -1.28906,-8.90625 -1.26953,-4.39453 -3.86719,-8.88672 z"/>
  </g>
  <g transform="translate(-452.8862,-274.81502)" id="g7087">
    <g aria-label="(1, 0)" style="font-style:normal;font-weight:normal;font-size:40px;line-height:1.25;font-family:sans-serif;letter-spacing:0px;word-spacing:0px;fill:#000000;fill-opacity:1;stroke:none" id="text4665">
      <path d="m 840.46136,445.28323 q -2.61718,4.49219 -3.88671,8.88672 -1.26954,4.39453 -1.26954,8.90625 0,4.51172 1.26954,8.94531 1.28906,4.41407 3.88671,8.88672 h -3.125 q -2.92968,-4.58984 -4.39453,-9.02343 -1.44531,-4.4336 -1.44531,-8.8086 0,-4.35547 1.44531,-8.76953 1.44532,-4.41406 4.39453,-9.02344 z" style="font-style:normal;font-variant:normal;font-weight:normal;font-stretch:normal;font-family:'DejaVu Sans';-inkscape-font-specification:'DejaVu Sans'" id="path6050"/>
      <path d="m 848.64496,472.31448 h 6.44531 v -22.24609 l -7.01172,1.40625 v -3.59375 l 6.97266,-1.40625 h 3.94531 v 25.83984 h 6.44531 v 3.32032 h -16.79687 z" style="font-style:normal;font-variant:normal;font-weight:normal;font-stretch:normal;font-family:'DejaVu Sans';-inkscape-font-specification:'DejaVu Sans'" id="path6052"/>
      <path d="m 873.84027,470.67386 h 4.12109 v 3.35937 l -3.20312,6.25 h -2.51953 l 1.60156,-6.25 z" style="font-style:normal;font-variant:normal;font-weight:normal;font-stretch:normal;font-family:'DejaVu Sans';-inkscape-font-specification:'DejaVu Sans'" id="path6054"/>
      <path d="m 907.33636,449.0723 q -3.04687,0 -4.58984,3.00781 -1.52344,2.98828 -1.52344,9.0039 0,5.9961 1.52344,9.00391 1.54297,2.98828 4.58984,2.98828 3.06641,0 4.58985,-2.98828 1.54297,-3.00781 1.54297,-9.00391 0,-6.01562 -1.54297,-9.0039 -1.52344,-3.00781 -4.58985,-3.00781 z m 0,-3.125 q 4.90235,0 7.48047,3.88671 2.59766,3.86719 2.59766,11.25 0,7.36329 -2.59766,11.25 -2.57812,3.86719 -7.48047,3.86719 -4.90234,0 -7.5,-3.86719 -2.57812,-3.88671 -2.57812,-11.25 0,-7.38281 2.57812,-11.25 2.59766,-3.88671 7.5,-3.88671 z" style="font-style:normal;font-variant:normal;font-weight:normal;font-stretch:normal;font-family:'DejaVu Sans';-inkscape-font-specification:'DejaVu Sans'" id="path6056"/>
      <path d="m 923.2934,445.28323 h 3.125 q 2.92968,4.60938 4.375,9.02344 1.46484,4.41406 1.46484,8.76953 0,4.375 -1.46484,8.8086 -1.44532,4.43359 -4.375,9.02343 h -3.125 q 2.59765,-4.47265 3.86718,-8.88672 1.28907,-4.43359 1.28907,-8.94531 0,-4.51172 -1.28907,-8.90625 -1.26953,-4.39453 -3.86718,-8.88672 z" style="font-style:normal;font-variant:normal;font-weight:normal;font-stretch:normal;font-family:'DejaVu Sans';-inkscape-font-specification:'DejaVu Sans'" id="path6058"/>
    </g>
    <g aria-label="(1, 0)" style="font-style:normal;font-weight:normal;font-size:40px;line-height:1.25;font-family:sans-serif;letter-spacing:0px;word-spacing:0px;fill:#00ff00;fill-opacity:1;stroke:none" id="text4665-48">
      <path d="m 838.46136,443.28323 q -2.61718,4.49219 -3.88671,8.88672 -1.26954,4.39453 -1.26954,8.90625 0,4.51172 1.26954,8.94531 1.28906,4.41407 3.88671,8.88672 h -3.125 q -2.92968,-4.58984 -4.39453,-9.02343 -1.44531,-4.4336 -1.44531,-8.8086 0,-4.35547 1.44531,-8.76953 1.44532,-4.41406 4.39453,-9.02344 z" style="font-style:normal;font-variant:normal;font-weight:normal;font-stretch:normal;font-family:'DejaVu Sans';-inkscape-font-specification:'DejaVu Sans';fill:#00ff00" id="path5993"/>
      <path d="m 846.64496,470.31448 h 6.44531 v -22.24609 l -7.01172,1.40625 v -3.59375 l 6.97266,-1.40625 h 3.94531 v 25.83984 h 6.44531 v 3.32032 h -16.79687 z" style="font-style:normal;font-variant:normal;font-weight:normal;font-stretch:normal;font-family:'DejaVu Sans';-inkscape-font-specification:'DejaVu Sans';fill:#00ff00" id="path5995"/>
      <path d="m 871.84027,468.67386 h 4.12109 v 3.35937 l -3.20312,6.25 h -2.51953 l 1.60156,-6.25 z" style="font-style:normal;font-variant:normal;font-weight:normal;font-stretch:normal;font-family:'DejaVu Sans';-inkscape-font-specification:'DejaVu Sans';fill:#00ff00" id="path5997"/>
      <path d="m 905.33636,447.0723 q -3.04687,0 -4.58984,3.00781 -1.52344,2.98828 -1.52344,9.0039 0,5.9961 1.52344,9.00391 1.54297,2.98828 4.58984,2.98828 3.06641,0 4.58985,-2.98828 1.54297,-3.00781 1.54297,-9.00391 0,-6.01562 -1.54297,-9.0039 -1.52344,-3.00781 -4.58985,-3.00781 z m 0,-3.125 q 4.90235,0 7.48047,3.88671 2.59766,3.86719 2.59766,11.25 0,7.36329 -2.59766,11.25 -2.57812,3.86719 -7.48047,3.86719 -4.90234,0 -7.5,-3.86719 -2.57812,-3.88671 -2.57812,-11.25 0,-7.38281 2.57812,-11.25 2.59766,-3.88671 7.5,-3.88671 z" style="font-style:normal;font-variant:normal;font-weight:normal;font-stretch:normal;font-family:'DejaVu Sans';-inkscape-font-specification:'DejaVu Sans';fill:#00ff00" id="path5999"/>
      <path d="m 921.2934,443.28323 h 3.125 q 2.92968,4.60938 4.375,9.02344 1.46484,4.41406 1.46484,8.76953 0,4.375 -1.46484,8.8086 -1.44532,4.43359 -4.375,9.02343 h -3.125 q 2.59765,-4.47265 3.86718,-8.88672 1.28907,-4.43359 1.28907,-8.94531 0,-4.51172 -1.28907,-8.90625 -1.26953,-4.39453 -3.86718,-8.88672 z" style="font-style:normal;font-variant:normal;font-weight:normal;font-stretch:normal;font-family:'DejaVu Sans';-inkscape-font-specification:'DejaVu Sans';fill:#00ff00" id="path6001"/>
    </g>
  </g>
  <g transform="translate(270.34174,-93.66214)" id="g7117">
    <g aria-label="(0, 1)" style="font-style:normal;font-weight:normal;font-size:40px;line-height:1.25;font-family:sans-serif;letter-spacing:0px;word-spacing:0px;fill:#000000;fill-opacity:1;stroke:none" id="text4665-4">
      <path d="m 524.20898,130 q -2.61718,4.49219 -3.88671,8.88672 -1.26954,4.39453 -1.26954,8.90625 0,4.51172 1.26954,8.94531 1.28906,4.41406 3.88671,8.88672 h -3.125 q -2.92968,-4.58984 -4.39453,-9.02344 -1.44531,-4.43359 -1.44531,-8.80859 0,-4.35547 1.44531,-8.76953 1.44532,-4.41407 4.39453,-9.02344 z" style="font-style:normal;font-variant:normal;font-weight:normal;font-stretch:normal;font-family:'DejaVu Sans';-inkscape-font-specification:'DejaVu Sans'" id="path6039"/>
      <path d="m 540.14648,133.78906 q -3.04687,0 -4.58984,3.00781 -1.52344,2.98829 -1.52344,9.00391 0,5.99609 1.52344,9.00391 1.54297,2.98828 4.58984,2.98828 3.06641,0 4.58985,-2.98828 1.54297,-3.00782 1.54297,-9.00391 0,-6.01562 -1.54297,-9.00391 -1.52344,-3.00781 -4.58985,-3.00781 z m 0,-3.125 q 4.90235,0 7.48047,3.88672 2.59766,3.86719 2.59766,11.25 0,7.36328 -2.59766,11.25 -2.57812,3.86719 -7.48047,3.86719 -4.90234,0 -7.5,-3.86719 -2.57812,-3.88672 -2.57812,-11.25 0,-7.38281 2.57812,-11.25 2.59766,-3.88672 7.5,-3.88672 z" style="font-style:normal;font-variant:normal;font-weight:normal;font-stretch:normal;font-family:'DejaVu Sans';-inkscape-font-specification:'DejaVu Sans'" id="path6041"/>
      <path d="m 557.58789,155.39062 h 4.12109 V 158.75 l -3.20312,6.25 h -2.51953 l 1.60156,-6.25 z" style="font-style:normal;font-variant:normal;font-weight:normal;font-stretch:normal;font-family:'DejaVu Sans';-inkscape-font-specification:'DejaVu Sans'" id="path6043"/>
      <path d="m 583.33008,157.03125 h 6.44531 v -22.24609 l -7.01172,1.40625 v -3.59375 l 6.97266,-1.40625 h 3.94531 v 25.83984 h 6.44531 v 3.32031 h -16.79687 z" style="font-style:normal;font-variant:normal;font-weight:normal;font-stretch:normal;font-family:'DejaVu Sans';-inkscape-font-specification:'DejaVu Sans'" id="path6045"/>
      <path d="m 607.04102,130 h 3.125 q 2.92968,4.60937 4.375,9.02344 1.46484,4.41406 1.46484,8.76953 0,4.375 -1.46484,8.80859 -1.44532,4.4336 -4.375,9.02344 h -3.125 q 2.59765,-4.47266 3.86718,-8.88672 1.28907,-4.43359 1.28907,-8.94531 0,-4.51172 -1.28907,-8.90625 -1.26953,-4.39453 -3.86718,-8.88672 z" style="font-style:normal;font-variant:normal;font-weight:normal;font-stretch:normal;font-family:'DejaVu Sans';-inkscape-font-specification:'DejaVu Sans'" id="path6047"/>
    </g>
    <g aria-label="(0, 1)" style="font-style:normal;font-weight:normal;font-size:40px;line-height:1.25;font-family:sans-serif;letter-spacing:0px;word-spacing:0px;fill:#00ff00;fill-opacity:1;stroke:none" id="text4665-4-5">
      <path d="m 522.20898,128 q -2.61718,4.49219 -3.88671,8.88672 -1.26954,4.39453 -1.26954,8.90625 0,4.51172 1.26954,8.94531 1.28906,4.41406 3.88671,8.88672 h -3.125 q -2.92968,-4.58984 -4.39453,-9.02344 -1.44531,-4.43359 -1.44531,-8.80859 0,-4.35547 1.44531,-8.76953 1.44532,-4.41407 4.39453,-9.02344 z" style="font-style:normal;font-variant:normal;font-weight:normal;font-stretch:normal;font-family:'DejaVu Sans';-inkscape-font-specification:'DejaVu Sans';fill:#00ff00" id="path5982"/>
      <path d="m 538.14648,131.78906 q -3.04687,0 -4.58984,3.00781 -1.52344,2.98829 -1.52344,9.00391 0,5.99609 1.52344,9.00391 1.54297,2.98828 4.58984,2.98828 3.06641,0 4.58985,-2.98828 1.54297,-3.00782 1.54297,-9.00391 0,-6.01562 -1.54297,-9.00391 -1.52344,-3.00781 -4.58985,-3.00781 z m 0,-3.125 q 4.90235,0 7.48047,3.88672 2.59766,3.86719 2.59766,11.25 0,7.36328 -2.59766,11.25 -2.57812,3.86719 -7.48047,3.86719 -4.90234,0 -7.5,-3.86719 -2.57812,-3.88672 -2.57812,-11.25 0,-7.38281 2.57812,-11.25 2.59766,-3.88672 7.5,-3.88672 z" style="font-style:normal;font-variant:normal;font-weight:normal;font-stretch:normal;font-family:'DejaVu Sans';-inkscape-font-specification:'DejaVu Sans';fill:#00ff00" id="path5984"/>
      <path d="m 555.58789,153.39062 h 4.12109 V 156.75 l -3.20312,6.25 h -2.51953 l 1.60156,-6.25 z" style="font-style:normal;font-variant:normal;font-weight:normal;font-stretch:normal;font-family:'DejaVu Sans';-inkscape-font-specification:'DejaVu Sans';fill:#00ff00" id="path5986"/>
      <path d="m 581.33008,155.03125 h 6.44531 v -22.24609 l -7.01172,1.40625 v -3.59375 l 6.97266,-1.40625 h 3.94531 v 25.83984 h 6.44531 v 3.32031 h -16.79687 z" style="font-style:normal;font-variant:normal;font-weight:normal;font-stretch:normal;font-family:'DejaVu Sans';-inkscape-font-specification:'DejaVu Sans';fill:#00ff00" id="path5988"/>
      <path d="m 605.04102,128 h 3.125 q 2.92968,4.60937 4.375,9.02344 1.46484,4.41406 1.46484,8.76953 0,4.375 -1.46484,8.80859 -1.44532,4.4336 -4.375,9.02344 h -3.125 q 2.59765,-4.47266 3.86718,-8.88672 1.28907,-4.43359 1.28907,-8.94531 0,-4.51172 -1.28907,-8.90625 -1.26953,-4.39453 -3.86718,-8.88672 z" style="font-style:normal;font-variant:normal;font-weight:normal;font-stretch:normal;font-family:'DejaVu Sans';-inkscape-font-specification:'DejaVu Sans';fill:#00ff00" id="path5990"/>
    </g>
  </g>
  <path id="circle24-6" d="M 906.45016,222.09321 A 135.21052,135.21052 0 0 1 771.23964,357.30373 135.21052,135.21052 0 0 1 636.02912,222.09321 135.21052,135.21052 0 0 1 771.23964,86.88269 135.21052,135.21052 0 0 1 906.45016,222.09321 Z" style="fill:none;stroke:#004775;stroke-width:7;stroke-miterlimit:5.5;stroke-dasharray:none;stroke-dashoffset:0"/>
  <path id="path4640-6" d="M 771.23964,21.5382 V 422.64822" style="fill:none;stroke:#00ff00;stroke-width:3.5;stroke-linecap:butt;stroke-linejoin:miter;stroke-miterlimit:5.5;stroke-dasharray:none;stroke-dashoffset:0;stroke-opacity:1"/>
  <path id="path4640-9-6" d="M 980.45193,222.09321 H 562.02734" style="fill:none;stroke:#00ff00;stroke-width:3.5;stroke-linecap:butt;stroke-linejoin:miter;stroke-miterlimit:5.5;stroke-dasharray:none;stroke-dashoffset:0;stroke-opacity:1"/>
  <path id="path4794-6" d="M 771.29869,220.42107 771.2985,109.16359" style="fill:#004775;fill-opacity:1;stroke:#004775;stroke-width:6.82719564;stroke-linecap:butt;stroke-linejoin:miter;stroke-miterlimit:5.5;stroke-dasharray:13.65439183, 13.65439183;stroke-dashoffset:0;stroke-opacity:1;marker-end:url(#TriangleOutM-7)"/>
  <path id="circle24-6-4" d="M 366.45016,222.09321 A 135.21052,135.21052 0 0 1 231.23964,357.30373 135.21052,135.21052 0 0 1 96.02912,222.09321 135.21052,135.21052 0 0 1 231.23964,86.88269 135.21052,135.21052 0 0 1 366.45016,222.09321 Z" style="fill:none;stroke:#004775;stroke-width:7;stroke-miterlimit:5.5;stroke-dasharray:none;stroke-dashoffset:0"/>
  <path id="path4640-6-1" d="M 231.23964,21.5382 V 422.64822" style="fill:none;stroke:#00ff00;stroke-width:3.5;stroke-linecap:butt;stroke-linejoin:miter;stroke-miterlimit:5.5;stroke-dasharray:none;stroke-dashoffset:0;stroke-opacity:1"/>
  <path id="path4640-9-6-0" d="M 440.45193,222.09321 H 22.02734" style="fill:none;stroke:#00ff00;stroke-width:3.5;stroke-linecap:butt;stroke-linejoin:miter;stroke-miterlimit:5.5;stroke-dasharray:none;stroke-dashoffset:0;stroke-opacity:1"/>
  <path id="path4794-6-8" d="m 232.86677,221.98948 111.25748,-1.9e-4" style="fill:#004775;fill-opacity:1;stroke:#004775;stroke-width:6.82719564;stroke-linecap:butt;stroke-linejoin:miter;stroke-miterlimit:5.5;stroke-dasharray:13.65439183, 13.65439183;stroke-dashoffset:0;stroke-opacity:1;marker-end:url(#TriangleOutM-7-7)"/>
  <path id="circle24-6-4-8" d="M 366.45016,742.09321 A 135.21052,135.21052 0 0 1 231.23964,877.30373 135.21052,135.21052 0 0 1 96.02912,742.09321 135.21052,135.21052 0 0 1 231.23964,606.88269 135.21052,135.21052 0 0 1 366.45016,742.09321 Z" style="fill:none;stroke:#004775;stroke-width:7;stroke-miterlimit:5.5;stroke-dasharray:none;stroke-dashoffset:0"/>
  <path id="path4640-6-1-8" d="M 231.23964,541.5382 V 942.64822" style="fill:none;stroke:#00ff00;stroke-width:3.5;stroke-linecap:butt;stroke-linejoin:miter;stroke-miterlimit:5.5;stroke-dasharray:none;stroke-dashoffset:0;stroke-opacity:1"/>
  <path id="path4640-9-6-0-4" d="M 440.45193,742.09321 H 22.02734" style="fill:none;stroke:#00ff00;stroke-width:3.5;stroke-linecap:butt;stroke-linejoin:miter;stroke-miterlimit:5.5;stroke-dasharray:none;stroke-dashoffset:0;stroke-opacity:1"/>
  <path id="path4794-6-8-5" d="m 232.85989,740.42818 78.67078,-78.67105" style="fill:#004775;fill-opacity:1;stroke:#004775;stroke-width:6.82719564;stroke-linecap:butt;stroke-linejoin:miter;stroke-miterlimit:5.5;stroke-dasharray:13.65439183, 13.65439183;stroke-dashoffset:0;stroke-opacity:1;marker-end:url(#TriangleOutM-7-7-1)"/>
  <path id="circle24-6-4-8-8" d="M 906.45016,742.09321 A 135.21052,135.21052 0 0 1 771.23964,877.30373 135.21052,135.21052 0 0 1 636.02912,742.09321 135.21052,135.21052 0 0 1 771.23964,606.88269 135.21052,135.21052 0 0 1 906.45016,742.09321 Z" style="fill:none;stroke:#004775;stroke-width:7;stroke-miterlimit:5.5;stroke-dasharray:none;stroke-dashoffset:0"/>
  <path id="path4640-6-1-8-4" d="M 771.23964,541.5382 V 942.64822" style="fill:none;stroke:#00ff00;stroke-width:3.5;stroke-linecap:butt;stroke-linejoin:miter;stroke-miterlimit:5.5;stroke-dasharray:none;stroke-dashoffset:0;stroke-opacity:1"/>
  <path id="path4640-9-6-0-4-5" d="M 980.45193,742.09321 H 562.02734" style="fill:none;stroke:#00ff00;stroke-width:3.5;stroke-linecap:butt;stroke-linejoin:miter;stroke-miterlimit:5.5;stroke-dasharray:none;stroke-dashoffset:0;stroke-opacity:1"/>
  <path id="path4794-6-8-5-8" d="M 770.10552,744.4406 669.83298,792.64478" style="fill:#004775;fill-opacity:1;stroke:#004775;stroke-width:6.82719564;stroke-linecap:butt;stroke-linejoin:miter;stroke-miterlimit:5.5;stroke-dasharray:13.65439183, 13.65439183;stroke-dashoffset:0;stroke-opacity:1;marker-end:url(#TriangleOutM-7-7-1-7)"/>
  <g transform="translate(8,-26)" id="text8357" style="font-style:normal;font-weight:normal;font-size:40px;line-height:1.25;font-family:sans-serif;letter-spacing:0px;word-spacing:0px;fill:#000000;fill-opacity:1;stroke:none" aria-label="(0.7, 0.7)">
    <path id="path8709" d="m 334.69748,620.32031 q -2.61719,4.49219 -3.88672,8.88672 -1.26953,4.39453 -1.26953,8.90625 0,4.51172 1.26953,8.94531 1.28906,4.41407 3.88672,8.88672 h -3.125 q -2.92969,-4.58984 -4.39453,-9.02344 -1.44531,-4.43359 -1.44531,-8.80859 0,-4.35547 1.44531,-8.76953 1.44531,-4.41406 4.39453,-9.02344 z"/>
    <path id="path8711" d="m 350.63498,624.10937 q -3.04688,0 -4.58984,3.00782 -1.52344,2.98828 -1.52344,9.0039 0,5.9961 1.52344,9.00391 1.54296,2.98828 4.58984,2.98828 3.06641,0 4.58984,-2.98828 1.54297,-3.00781 1.54297,-9.00391 0,-6.01562 -1.54297,-9.0039 -1.52343,-3.00782 -4.58984,-3.00782 z m 0,-3.125 q 4.90234,0 7.48047,3.88672 2.59765,3.86719 2.59765,11.25 0,7.36328 -2.59765,11.25 -2.57813,3.86719 -7.48047,3.86719 -4.90234,0 -7.5,-3.86719 -2.57813,-3.88672 -2.57813,-11.25 0,-7.38281 2.57813,-11.25 2.59766,-3.88672 7.5,-3.88672 z"/>
    <path id="path8713" d="m 367.66623,645.71094 h 4.12109 v 4.96093 h -4.12109 z"/>
    <path id="path8715" d="m 379.40451,621.51172 h 18.75 v 1.67969 l -10.58594,27.48046 h -4.12109 l 9.96094,-25.83984 h -14.00391 z"/>
    <path id="path8717" d="m 406.27951,645.71094 h 4.12109 v 3.35937 l -3.20312,6.25 h -2.51953 l 1.60156,-6.25 z"/>
    <path id="path8719" d="m 439.7756,624.10937 q -3.04687,0 -4.58984,3.00782 -1.52344,2.98828 -1.52344,9.0039 0,5.9961 1.52344,9.00391 1.54297,2.98828 4.58984,2.98828 3.06641,0 4.58985,-2.98828 1.54297,-3.00781 1.54297,-9.00391 0,-6.01562 -1.54297,-9.0039 -1.52344,-3.00782 -4.58985,-3.00782 z m 0,-3.125 q 4.90235,0 7.48047,3.88672 2.59766,3.86719 2.59766,11.25 0,7.36328 -2.59766,11.25 -2.57812,3.86719 -7.48047,3.86719 -4.90234,0 -7.5,-3.86719 -2.57812,-3.88672 -2.57812,-11.25 0,-7.38281 2.57812,-11.25 2.59766,-3.88672 7.5,-3.88672 z"/>
    <path id="path8721" d="m 456.80685,645.71094 h 4.1211 v 4.96093 h -4.1211 z"/>
    <path id="path8723" d="m 468.54514,621.51172 h 18.75 v 1.67969 l -10.58594,27.48046 h -4.1211 l 9.96094,-25.83984 h -14.0039 z"/>
    <path id="path8725" d="m 493.93576,620.32031 h 3.125 q 2.92969,4.60938 4.375,9.02344 1.46484,4.41406 1.46484,8.76953 0,4.375 -1.46484,8.80859 -1.44531,4.4336 -4.375,9.02344 h -3.125 q 2.59766,-4.47265 3.86719,-8.88672 1.28906,-4.43359 1.28906,-8.94531 0,-4.51172 -1.28906,-8.90625 -1.26953,-4.39453 -3.86719,-8.88672 z"/>
  </g>
  <g transform="translate(0,-40)" id="text8357-7" style="font-style:normal;font-weight:normal;font-size:40px;line-height:1.25;font-family:sans-serif;letter-spacing:0px;word-spacing:0px;fill:#00ff00;fill-opacity:1;stroke:none" aria-label="(0.7, 0.7)">
    <path id="path8690" d="m 340.69748,632.32031 q -2.61719,4.49219 -3.88672,8.88672 -1.26953,4.39453 -1.26953,8.90625 0,4.51172 1.26953,8.94531 1.28906,4.41407 3.88672,8.88672 h -3.125 q -2.92969,-4.58984 -4.39453,-9.02344 -1.44531,-4.43359 -1.44531,-8.80859 0,-4.35547 1.44531,-8.76953 1.44531,-4.41406 4.39453,-9.02344 z"/>
    <path id="path8692" d="m 356.63498,636.10937 q -3.04688,0 -4.58984,3.00782 -1.52344,2.98828 -1.52344,9.0039 0,5.9961 1.52344,9.00391 1.54296,2.98828 4.58984,2.98828 3.06641,0 4.58984,-2.98828 1.54297,-3.00781 1.54297,-9.00391 0,-6.01562 -1.54297,-9.0039 -1.52343,-3.00782 -4.58984,-3.00782 z m 0,-3.125 q 4.90234,0 7.48047,3.88672 2.59765,3.86719 2.59765,11.25 0,7.36328 -2.59765,11.25 -2.57813,3.86719 -7.48047,3.86719 -4.90234,0 -7.5,-3.86719 -2.57813,-3.88672 -2.57813,-11.25 0,-7.38281 2.57813,-11.25 2.59766,-3.88672 7.5,-3.88672 z"/>
    <path id="path8694" d="m 373.66623,657.71094 h 4.12109 v 4.96093 h -4.12109 z"/>
    <path id="path8696" d="m 385.40451,633.51172 h 18.75 v 1.67969 l -10.58594,27.48046 h -4.12109 l 9.96094,-25.83984 h -14.00391 z"/>
    <path id="path8698" d="m 412.27951,657.71094 h 4.12109 v 3.35937 l -3.20312,6.25 h -2.51953 l 1.60156,-6.25 z"/>
    <path id="path8700" d="m 445.7756,636.10937 q -3.04687,0 -4.58984,3.00782 -1.52344,2.98828 -1.52344,9.0039 0,5.9961 1.52344,9.00391 1.54297,2.98828 4.58984,2.98828 3.06641,0 4.58985,-2.98828 1.54297,-3.00781 1.54297,-9.00391 0,-6.01562 -1.54297,-9.0039 -1.52344,-3.00782 -4.58985,-3.00782 z m 0,-3.125 q 4.90235,0 7.48047,3.88672 2.59766,3.86719 2.59766,11.25 0,7.36328 -2.59766,11.25 -2.57812,3.86719 -7.48047,3.86719 -4.90234,0 -7.5,-3.86719 -2.57812,-3.88672 -2.57812,-11.25 0,-7.38281 2.57812,-11.25 2.59766,-3.88672 7.5,-3.88672 z"/>
    <path id="path8702" d="m 462.80685,657.71094 h 4.1211 v 4.96093 h -4.1211 z"/>
    <path id="path8704" d="m 474.54514,633.51172 h 18.75 v 1.67969 l -10.58594,27.48046 h -4.1211 l 9.96094,-25.83984 h -14.0039 z"/>
    <path id="path8706" d="m 499.93576,632.32031 h 3.125 q 2.92969,4.60938 4.375,9.02344 1.46484,4.41406 1.46484,8.76953 0,4.375 -1.46484,8.80859 -1.44531,4.4336 -4.375,9.02344 h -3.125 q 2.59766,-4.47265 3.86719,-8.88672 1.28906,-4.43359 1.28906,-8.94531 0,-4.51172 -1.28906,-8.90625 -1.26953,-4.39453 -3.86719,-8.88672 z"/>
  </g>
  <g transform="translate(8,-26)" id="text8357-7-4" style="font-style:normal;font-weight:normal;font-size:40px;line-height:1.25;font-family:sans-serif;letter-spacing:0px;word-spacing:0px;fill:#00ff00;fill-opacity:1;stroke:none" aria-label="(-1.0, -0.3)">
    <path id="path8667" d="m 434.6286,838.02441 q -2.61719,4.49219 -3.88672,8.88672 -1.26953,4.39453 -1.26953,8.90625 0,4.51172 1.26953,8.94532 1.28906,4.41406 3.88672,8.88671 h -3.125 q -2.92969,-4.58984 -4.39453,-9.02343 -1.44531,-4.4336 -1.44531,-8.8086 0,-4.35547 1.44531,-8.76953 1.44531,-4.41406 4.39453,-9.02344 z"/>
    <path id="path8669" d="m 439.80438,855.81738 h 10.52735 v 3.20313 h -10.52735 z"/>
    <path id="path8671" d="m 457.26532,865.05566 h 6.44531 v -22.24609 l -7.01172,1.40625 v -3.59375 l 6.97266,-1.40625 h 3.94531 v 25.83984 h 6.44531 v 3.32032 h -16.79687 z"/>
    <path id="path8673" d="m 482.05048,863.41504 h 4.12109 v 4.96094 h -4.12109 z"/>
    <path id="path8675" d="m 503.22235,841.81348 q -3.04687,0 -4.58984,3.00781 -1.52344,2.98828 -1.52344,9.00391 0,5.99609 1.52344,9.0039 1.54297,2.98828 4.58984,2.98828 3.06641,0 4.58984,-2.98828 1.54297,-3.00781 1.54297,-9.0039 0,-6.01563 -1.54297,-9.00391 -1.52343,-3.00781 -4.58984,-3.00781 z m 0,-3.125 q 4.90234,0 7.48047,3.88672 2.59766,3.86718 2.59766,11.25 0,7.36328 -2.59766,11.25 -2.57813,3.86718 -7.48047,3.86718 -4.90234,0 -7.5,-3.86718 -2.57812,-3.88672 -2.57812,-11.25 0,-7.38282 2.57812,-11.25 2.59766,-3.88672 7.5,-3.88672 z"/>
    <path id="path8677" d="m 520.66376,863.41504 h 4.12109 v 3.35937 l -3.20312,6.25 h -2.51954 l 1.60157,-6.25 z"/>
    <path id="path8679" d="m 543.39813,855.81738 h 10.52735 v 3.20313 h -10.52735 z"/>
    <path id="path8681" d="m 568.61298,841.81348 q -3.04688,0 -4.58985,3.00781 -1.52344,2.98828 -1.52344,9.00391 0,5.99609 1.52344,9.0039 1.54297,2.98828 4.58985,2.98828 3.0664,0 4.58984,-2.98828 1.54297,-3.00781 1.54297,-9.0039 0,-6.01563 -1.54297,-9.00391 -1.52344,-3.00781 -4.58984,-3.00781 z m 0,-3.125 q 4.90234,0 7.48046,3.88672 2.59766,3.86718 2.59766,11.25 0,7.36328 -2.59766,11.25 -2.57812,3.86718 -7.48046,3.86718 -4.90235,0 -7.5,-3.86718 -2.57813,-3.88672 -2.57813,-11.25 0,-7.38282 2.57813,-11.25 2.59765,-3.88672 7.5,-3.88672 z"/>
    <path id="path8683" d="m 585.64423,863.41504 h 4.12109 v 4.96094 h -4.12109 z"/>
    <path id="path8685" d="m 610.33173,852.65332 q 2.83203,0.60547 4.41406,2.51953 1.60156,1.91406 1.60156,4.72656 0,4.31641 -2.96875,6.67969 -2.96875,2.36328 -8.4375,2.36328 -1.83594,0 -3.78906,-0.37109 -1.9336,-0.35156 -4.00391,-1.07422 v -3.80859 q 1.64063,0.95703 3.59375,1.44531 1.95313,0.48828 4.08203,0.48828 3.71094,0 5.64453,-1.46484 1.95313,-1.46485 1.95313,-4.25782 0,-2.57812 -1.81641,-4.02343 -1.79687,-1.46485 -5.01953,-1.46485 h -3.39844 v -3.24218 h 3.55469 q 2.91016,0 4.45313,-1.15235 1.54297,-1.17187 1.54297,-3.35937 0,-2.2461 -1.60157,-3.4375 -1.58203,-1.21094 -4.55078,-1.21094 -1.62109,0 -3.47656,0.35156 -1.85547,0.35156 -4.08203,1.09375 v -3.51562 q 2.24609,-0.625 4.19922,-0.9375 1.97265,-0.3125 3.71093,-0.3125 4.49219,0 7.10938,2.05078 2.61719,2.03125 2.61719,5.50781 0,2.42188 -1.38672,4.10156 -1.38672,1.66016 -3.94531,2.30469 z"/>
    <path id="path8687" d="m 622.77313,838.02441 h 3.125 q 2.92969,4.60938 4.375,9.02344 1.46485,4.41406 1.46485,8.76953 0,4.375 -1.46485,8.8086 -1.44531,4.43359 -4.375,9.02343 h -3.125 q 2.59766,-4.47265 3.86719,-8.88671 1.28906,-4.4336 1.28906,-8.94532 0,-4.51172 -1.28906,-8.90625 -1.26953,-4.39453 -3.86719,-8.88672 z"/>
  </g>
  <g transform="translate(0,-40)" id="text8578" style="font-style:normal;font-weight:normal;font-size:40px;line-height:1.25;font-family:sans-serif;letter-spacing:0px;word-spacing:0px;fill:#000000;fill-opacity:1;stroke:none" aria-label="  "/>
</svg>